<?xml version="1.0" standalone="no"?>
<!DOCTYPE svg PUBLIC "-//W3C//DTD SVG 20010904//EN"
 "http://www.w3.org/TR/2001/REC-SVG-20010904/DTD/svg10.dtd">
<svg version="1.0" xmlns="http://www.w3.org/2000/svg"
 width="286.000000pt" height="286.000000pt" viewBox="0 0 286.000000 286.000000"
 preserveAspectRatio="xMidYMid meet">
<metadata>
Created by potrace 1.11, written by Peter Selinger 2001-2013
</metadata>
<g transform="translate(0.000000,286.000000) scale(0.100000,-0.100000)"
fill="#000000" stroke="none">
<path d="M1832 2768 c-42 -39 -121 -115 -175 -167 -54 -53 -102 -97 -107 -99
-14 -5 -12 -39 3 -45 24 -9 65 2 152 41 75 34 92 39 117 30 35 -12 78 -73 78
-109 0 -72 -100 -204 -218 -287 l-57 -40 -65 82 c-45 56 -75 84 -96 90 -30 9
-32 13 -38 73 -12 119 -62 246 -150 383 -54 83 -71 100 -102 100 -25 0 -462
-182 -535 -222 -59 -33 -76 -73 -120 -286 -36 -175 -6 -186 126 -48 65 68 105
102 145 120 64 30 159 52 169 39 7 -7 23 -56 67 -199 12 -40 12 -41 -37 -103
-27 -35 -49 -68 -49 -75 0 -19 -55 -74 -96 -95 -100 -52 -274 -72 -379 -45
-33 9 -86 27 -118 40 -83 35 -224 71 -277 70 -42 -1 -45 -3 -52 -36 -4 -19 -9
-58 -10 -86 -2 -48 2 -56 52 -120 117 -151 189 -203 333 -240 51 -13 117 -31
147 -39 88 -24 164 -15 224 28 l28 20 -6 -84 c-4 -46 -9 -95 -11 -109 -2 -14
-7 -54 -10 -90 -3 -36 -8 -85 -10 -110 -34 -354 -34 -370 -2 -449 78 -189 163
-248 353 -249 97 0 122 -5 240 -38 66 -19 84 -35 164 -146 36 -50 75 -97 87
-105 19 -13 24 -11 57 18 20 17 39 29 42 27 3 -3 22 -29 43 -57 21 -28 51 -61
66 -73 l27 -21 19 24 c11 13 28 43 38 66 l19 42 145 -75 c140 -72 236 -104
238 -80 0 6 2 20 4 31 3 11 -3 66 -12 122 -9 57 -14 105 -12 108 3 2 29 5 59
6 79 3 93 21 88 115 l-3 73 28 7 c40 9 95 67 103 110 4 20 4 61 2 92 -4 39 0
74 12 112 39 122 11 202 -92 254 -90 46 -91 48 -99 133 -8 76 -1 121 52 333
37 148 37 147 87 170 129 59 162 79 220 136 45 45 72 82 96 136 36 77 38 99
16 181 l-13 48 -41 -6 c-22 -4 -83 -31 -134 -62 -143 -84 -192 -104 -298 -118
-91 -12 -127 35 -127 165 0 64 7 94 47 203 47 130 56 190 34 220 -23 30 -350
237 -375 237 -16 0 -49 -24 -101 -72z"/>
<path d="M1330 2749 c0 -7 75 -253 116 -381 17 -53 125 -172 182 -202 l33 -17
56 53 c30 29 66 64 80 78 57 58 81 151 47 184 -36 37 -85 30 -196 -25 -70 -35
-93 -36 -114 -4 -31 48 -15 76 155 265 22 25 41 48 41 51 0 4 -90 7 -200 6
-110 0 -200 -4 -200 -8z"/>
<path d="M2333 2444 c-37 -69 -67 -184 -67 -254 0 -81 18 -150 39 -150 7 0 41
9 76 19 35 11 97 27 137 37 64 16 72 21 72 42 0 18 -53 96 -90 132 -3 3 -25
30 -50 60 -25 30 -53 64 -62 75 -10 11 -24 29 -31 39 -14 19 -14 19 -24 0z"/>
<path d="M853 2375 c-78 -23 -96 -37 -211 -159 -93 -98 -99 -101 -152 -72
l-44 24 -47 -82 c-53 -92 -53 -94 24 -133 95 -48 207 -42 385 20 56 19 67 27
84 62 12 22 33 55 49 72 32 38 53 104 44 142 -3 14 -15 51 -26 82 -22 61 -33
65 -106 44z"/>
<path d="M2619 1725 c-58 -29 -111 -60 -118 -68 -7 -9 -19 -55 -26 -104 -9
-51 -28 -116 -46 -156 -26 -57 -31 -79 -30 -141 0 -41 5 -85 10 -99 6 -14 38
-42 79 -67 121 -75 145 -144 102 -295 -11 -38 -20 -71 -20 -72 0 -2 8 -3 18
-3 14 0 30 24 60 88 104 219 143 395 138 632 -2 161 -29 340 -50 339 -6 0 -58
-24 -117 -54z"/>
<path d="M244 1526 c-8 -22 -9 -212 -1 -293 27 -273 174 -569 386 -782 227
-227 491 -347 790 -358 133 -6 301 10 301 27 0 13 -41 16 -82 6 -50 -13 -77 7
-127 93 -50 85 -115 143 -190 172 -54 20 -78 23 -272 33 -151 8 -221 59 -296
213 -54 114 -62 180 -39 334 9 59 18 172 21 250 3 79 8 167 10 196 l3 51 -31
-9 c-69 -20 -143 -10 -287 36 -151 48 -178 53 -186 31z"/>
</g>
</svg>
