<svg id="Layer_1" data-name="Layer 1" xmlns="http://www.w3.org/2000/svg" width="103.12" height="103.12" viewBox="0 0 103.12 103.12">
  <title>checkmark</title>
  <path d="M51.56,0a51.56,51.56,0,1,0,51.56,51.56A51.55,51.55,0,0,0,51.56,0Zm40,26.55A130.89,130.89,0,0,0,73.06,42.34a122.32,122.32,0,0,0-27.39,43c-.1.27-.21.53-.39,1L8.33,53.19c.28-.23.49-.44.73-.62,3-2.22,6-4.43,9-6.68a1,1,0,0,1,1.47,0Q29,53.25,38.43,60.53c.18.14.37.25.64.42A135.41,135.41,0,0,1,89.82,20.2l1.32,3c.29.67.53,1.35.87,2S92.14,26.16,91.59,26.55Z" style="fill: #39b54a"/>
</svg>
