<svg width="185" height="122" viewBox="0 0 185 122" fill="none" xmlns="http://www.w3.org/2000/svg">
<path d="M129.55 24.0983C129.357 25.2042 128.562 26.1872 127.043 26.5804C126.705 26.6542 126.368 27.1703 126.247 27.5389C123.643 35.2066 121.039 42.8989 118.508 50.5911C118.363 51.0089 118.556 51.7462 118.845 52.0657C120.437 53.6877 122.124 55.2114 123.74 56.8089C124.415 57.4724 124.776 57.325 125.451 56.686C131.382 51.4022 138.133 48.0107 146.113 47.47C155.226 46.831 163.665 48.8708 170.801 54.7936C181.24 63.4198 186.183 74.6756 184.76 88.4135C183.29 102.471 176.298 113.088 163.568 118.642C139.387 129.234 118.797 112.424 114.506 93.6482C114.168 92.2228 113.927 90.7728 113.373 89.1508C113.156 89.4949 112.866 89.8144 112.746 90.2076C111.589 94.2135 108.768 96.8677 104.958 96.8923C103.078 96.8923 102.548 97.6787 102.065 99.227C101.318 101.586 100.378 103.872 99.4134 106.452C100.04 106.452 100.498 106.452 100.956 106.452C101.993 106.428 102.403 107.018 102.403 108.001C102.427 109.008 101.945 109.475 100.908 109.451C98.6177 109.426 96.3274 109.426 94.037 109.451C93.0967 109.475 92.7351 109.033 92.7351 108.123C92.7351 107.214 92.9279 106.354 94.0129 106.501C95.6041 106.673 96.1104 105.862 96.5202 104.462C97.2917 101.881 98.3043 99.399 99.2687 96.8923C99.5821 96.0812 99.5821 95.5406 98.8106 94.9016C95.6523 92.272 94.7362 87.7254 96.6167 84.0144C97.0265 83.228 96.906 82.7119 96.3756 82.0484C88.2749 71.8985 80.1982 61.7241 72.1216 51.5496C67.1551 45.2827 62.2127 38.9913 57.2462 32.7244C57.0533 32.4787 56.8604 32.2329 56.4747 31.766C54.2325 38.1311 52.0868 44.2014 49.9892 50.1242C52.2796 51.525 54.5218 52.6555 56.4988 54.1547C64.937 60.6181 70.4098 69.0968 71.3742 79.9348C72.4591 92.2474 69.5419 103.454 60.1634 112.006C52.3279 119.158 43.0217 122.697 32.4135 121.886C25.2772 121.345 19.0811 118.2 13.5601 113.678C6.52014 107.902 1.96347 100.579 0.541025 91.4364C-2.97894 68.4579 11.1973 52.2132 27.9533 48.1827C33.7637 46.7819 39.574 47.0768 45.3361 48.6742C45.5772 48.7479 45.7942 48.7971 46.0353 48.8462C46.1076 48.8708 46.18 48.8217 46.5416 48.7479C50.4232 37.6642 54.3289 26.4576 58.307 15.0297C57.2703 14.6119 56.2818 14.2187 55.2933 13.8255C54.0155 13.334 52.7377 12.8671 51.484 12.351C50.4473 11.9332 50.1339 11.1222 50.5197 10.0654C51.5081 7.31288 52.4484 4.5358 53.461 1.78329C54.0637 0.16128 54.9075 -0.305663 56.1853 0.185856C57.2703 0.579071 57.7283 1.85702 57.222 3.307C56.6193 5.02732 55.9443 6.74764 55.2933 8.46795C55.1486 8.88575 55.004 9.30354 54.8111 9.81963C56.8122 10.5569 58.7409 11.245 60.6456 11.9332C62.4538 12.5967 62.8877 13.4814 62.2609 15.3246C61.5376 17.4136 60.7902 19.478 60.0669 21.5669C59.5848 22.9432 59.6812 23.1398 61.176 23.6067C70.6509 26.605 80.15 29.5541 89.6491 32.5524C98.4731 35.354 107.297 38.1311 116.121 41.0065C117.327 41.3997 117.761 41.0311 118.122 39.9252C119.617 35.3295 121.184 30.7338 122.727 26.1381C123.185 24.7372 123.836 23.533 125.307 22.9432C125.62 22.8203 125.934 22.2796 125.934 21.911C125.958 21.6161 125.596 21.1246 125.283 21.0263C121.763 19.6746 118.243 18.6424 114.385 19.7483C112.698 20.2398 110.841 20.2153 109.057 20.1907C107.803 20.1661 107.466 19.4043 108.044 18.2492C108.888 16.5289 110.359 15.7424 112.119 15.3246C115.88 14.4399 119.689 14.5874 123.499 14.9314C129.646 15.4721 135.746 16.7009 141.966 16.3077C142.738 16.2585 143.292 16.6517 143.365 17.3399C143.437 17.856 143.244 18.5932 142.882 18.9373C140.93 20.9034 138.495 22.1322 135.915 22.894C133.962 23.4593 131.889 23.6805 129.55 24.0983ZM48.2775 55.2114C48.1087 55.5801 47.9641 55.8258 47.8676 56.0716C45.4567 62.9037 43.0458 69.7604 40.6348 76.6171C40.225 77.7476 39.7428 78.8289 41.2135 79.6153C41.4545 79.7382 41.5028 80.1806 41.6715 80.4509C43.9619 83.9899 43.0217 87.3076 40.7554 89.9618C40.1044 90.7237 39.1159 91.3381 38.1757 91.6084C35.8853 92.272 33.7155 92.1491 31.6179 90.6254C29.6892 89.2246 28.3391 86.2017 28.6043 83.9653C29.0141 80.623 31.2322 77.723 34.6075 77.3052C35.9576 77.1332 37.0184 76.6417 37.5247 75.0688C39.5258 68.9985 41.6715 62.9529 43.7449 56.9072C44.0825 55.9241 44.3959 54.9411 44.7334 53.9335C41.9367 52.7047 39.0677 52.5572 36.2469 52.5818C31.6179 52.5818 27.1095 53.3437 22.8663 55.4572C12.0412 60.8147 6.44781 69.8833 5.1218 81.7535C4.42263 87.9958 5.6522 94.066 8.56943 99.6693C12.5475 107.288 18.406 112.645 26.6273 115.201C32.7029 117.094 38.7784 117.167 44.8057 115.275C60.5974 110.335 68.8668 93.9431 65.9496 78.2391C64.5754 70.8909 60.9831 64.7715 55.4621 59.8317C53.3646 57.9148 51.0259 56.3665 48.2775 55.2114ZM149.609 116.479C154.624 116.774 159.47 115.324 164.002 112.842C167.643 110.851 170.656 108.05 173.236 104.732C177.142 99.6939 179.336 93.9677 179.866 87.6763C180.445 80.8196 179.215 74.2824 175.719 68.2613C169.933 58.2834 161.374 53.0242 150.043 52.5572C146.547 52.4098 143.099 52.9259 139.748 54.0318C135.77 55.3589 132.154 57.325 129.068 60.2249C128.537 60.7164 128.32 61.1342 128.947 61.7241C133.938 66.4672 138.904 71.2595 143.919 75.9535C144.98 76.9366 146.065 77.8705 147.825 77.3544C150.597 76.5679 152.936 77.6247 154.744 79.8365C156.552 82.0484 156.866 84.5551 155.877 87.1602C154.961 89.5932 153.346 91.2644 150.646 91.7804C148.404 92.1982 146.475 91.8788 144.859 90.2076C144.112 89.4212 143.509 88.5118 142.738 87.75C142.449 87.4551 141.918 87.2585 141.508 87.283C138.061 87.4059 134.613 87.5288 131.165 87.7991C127.356 88.0941 123.571 88.5364 119.786 88.9051C119.038 88.9788 118.701 89.2983 118.845 90.0847C120.557 99.2024 124.969 106.551 132.612 111.662C137.699 115.054 143.292 116.676 149.609 116.479ZM99.6544 80.156C101.294 79.7874 102.692 79.4187 104.091 79.1976C104.814 79.0993 105.103 78.7306 105.296 78.0916C105.826 76.3713 106.357 74.6756 106.935 72.9798C109.057 66.7375 111.203 60.4953 113.349 54.2775C113.783 53.0487 113.421 52.0657 112.481 51.2055C109.322 48.281 106.14 45.4056 103.078 42.4073C101.222 40.5887 99.0999 39.4828 96.689 38.721C88.4436 36.1896 80.2223 33.6092 72.0011 31.0533C67.7096 29.7262 63.4423 28.3745 59.1508 27.0474C58.8615 26.9491 58.4998 27.0965 58.1864 27.1211C58.2587 27.4406 58.2587 27.8584 58.4275 28.1041C59.0785 28.9889 59.7776 29.8245 60.4527 30.6846C68.4088 40.7362 76.389 50.7878 84.345 60.8393C89.5044 67.3274 94.6397 73.8154 99.6544 80.156ZM125.644 63.8376C120.919 70.1045 118.315 76.8628 118.58 84.8009C119.087 84.8009 119.424 84.8255 119.786 84.8009C124.776 84.506 129.791 84.2356 134.782 83.9161C136.903 83.7933 139.025 83.6212 141.122 83.4C141.508 83.3509 142.039 83.1789 142.232 82.884C142.569 82.3433 142.617 81.606 142.931 81.0162C143.292 80.3772 143.124 80.0331 142.641 79.5662C138.133 75.3883 133.673 71.1612 129.164 66.9587C128.079 65.9511 126.946 64.9927 125.644 63.8376ZM116.844 55.4572C113.999 63.9113 111.251 72.0214 108.454 80.2543C110.238 81.1882 111.372 82.8348 112.288 84.7026C112.432 84.9975 112.77 85.1941 113.035 85.4644C113.204 85.1204 113.469 84.7763 113.517 84.4322C113.903 81.2865 114.024 78.0671 114.675 74.9705C115.735 69.9078 118.17 65.435 121.281 61.3308C121.522 61.0359 121.787 60.3478 121.666 60.2249C120.147 58.6766 118.58 57.1775 116.844 55.4572ZM109.226 42.7514C109.154 42.8497 109.105 42.948 109.033 43.0463C110.407 44.3489 111.733 45.676 113.132 46.9539C113.734 47.5191 114.409 47.9861 115.06 48.5022C115.422 47.6175 115.808 46.7573 116.169 45.8726C116.193 45.7988 116.242 45.7005 116.218 45.6268C116.073 45.3319 115.952 44.8895 115.711 44.8158C113.566 44.0785 111.396 43.415 109.226 42.7514Z" fill="black"/>
</svg>
