<svg id="Layer_1" data-name="Layer 1" xmlns="http://www.w3.org/2000/svg" viewBox="0 0 4610 635.01">
  <title>cykler3</title>
  <g>
    <g>
      <path d="M2505.2,231q-5.25-5.16-10.78-10c-45-39.82-90.3-79.34-135-119.55-16.56-14.92-33.59-19.48-53.54-8.22-34.2,19.29-68.58,38.29-102.41,58.24-11.45,6.75-22.76,14.73-31.79,24.35-16.22,17.3-17.1,38.65-1.73,56.66a229.94,229.94,0,0,0,39.18,35.85c24.8,18.12,38.43,28,46.55,39.59,13.45-14.81,27.35-29.69,43.77-41.3-15.22-14.39-30.44-29-47.63-45.31,28.54-15.59,54.42-30.93,81.53-43.69,7-3.28,19.42-1.09,26.58,3.2,18.88,11.32,36.12,25.34,54.23,38,22.14,15.43,44.07,31.23,67,45.45,9.41,5.85,21.8,8.32,29.68-3.5C2518.12,249.76,2513.92,239.56,2505.2,231Z"/>
      <path d="M2422.22,3.45c26.49,9.49,40.11,37.74,30.8,63.82a50.89,50.89,0,0,1-65.6,31c-25.68-9.15-39.53-38.45-30.44-64.36C2366.76,6.06,2394-6.67,2422.22,3.45Z"/>
      <g>
        <path d="M2377.84,348.63l-1.63,24.57a12,12,0,0,1-16.79,2.48l-99.55-73.93a12,12,0,0,1-2.48-16.79l17.16-23.11a12,12,0,0,1,16.79-2.48l88.5,72.26C2385.14,335.57,2377.84,348.63,2377.84,348.63Z"/>
        <path d="M2342.71,546l-17.32-2.39a12,12,0,0,1-10.25-13.52l26.88-195a12,12,0,0,1,13.53-10.25l17.32,2.39c12.13,8.38,11.15,7,10.25,13.52l-26.88,195A12,12,0,0,1,2342.71,546Z"/>
      </g>
      <g>
        <path d="M2316.27,360.73l-7.68,23.4a12,12,0,0,1-16.87-1.76l-78.12-96.3a12,12,0,0,1,1.75-16.88l22.36-18.13a12,12,0,0,1,16.88,1.76l67.83,91.94C2326.58,349.88,2316.27,360.73,2316.27,360.73Z"/>
        <rect x="2246.2" y="327.25" width="41.49" height="220.82" rx="12" transform="translate(333.42 -824.1) rotate(22.2)"/>
      </g>
      <g>
        <path d="M2294.1,532c12.46,2.14,24.87,4.51,37.34,6.83.27,3.79.5,7,.74,10.48l10.21.62c.23-11.31.45-22.17.67-33l-11,.29c-.13,2.7-.24,5-.38,7.69-11.61-2.64-22.75-5.28-34-7.64-3.07-.65-4.93-1.78-6.18-4.47C2290.58,519.11,2293.59,525.92,2294.1,532Z"/>
        <path d="M2700,445.8c-14.83-62.33-69.83-109.5-133.68-115.3-29.83-2.71-58,2.94-85.2,16.41-.84-2.23-1.67-4.34-2.44-6.47q-20-55.12-40.06-110.23c-1.07-2.93-1-5.2.65-7.88,4-6.48,7.78-13.16,11.76-20-8.8-9.56-17.43-19-26.2-28.37a6,6,0,0,0-3.91-1.65c-18.5-.06-37,0-55.49.07a6.94,6.94,0,0,0-1.55.59c-.31,4.95-.63,10.19-1,16,2.16.1,3.92.25,5.68.26,13.83,0,27.67,0,41.5,0,4.3,0,14.18,7.12,15.14,11.13.22.93-.41,2.18-.92,3.14-2.85,5.27-6,10.39-8.56,15.8a11.77,11.77,0,0,0-.83,7.4c4.45,16.7,9.22,33.31,14.14,50.85H2223.38c-9.18,0-9.18,0-11.39-9.87,1.19-.34,2.38-.78,3.61-1a177.53,177.53,0,0,0,43.91-14.61,23,23,0,0,0,2.63-1.43c3.2-2.08,7.25-4,6-8.67-1.13-4.37-5.34-5.09-9.25-5.33q-15-.92-29.95-1.6c-28.63-1.35-57.26-2.71-85.89-3.92-4.06-.18-9.05-.88-11.16,3.59s1.85,7.66,4.39,10.83c9.86,12.35,23.49,17.73,38.5,20,5.14.78,7,3.33,9.37,7.7,6,11.24,4,19.56-4.68,28.92-13.1,14.15-24.51,29.86-36.65,44.9-1.24,1.54-2.54,3-3.91,4.65a161.06,161.06,0,0,0-57.82-20.25c-75.43-11.66-149.33,35.73-169.84,109.47-2.75,9.88-3.64,20.26-5.39,30.41-.31,1.79-.6,3.58-.9,5.37v12c1,7,1.78,14.12,3,21.14,11.32,66.2,69.11,119.93,136.23,124.44,66.18,4.45,115.93-23.66,149-80.94,5.67-9.83,9.26-20.85,14-31.82,14.18,2.59,28.9,5.25,43.58,8.05,1.08.21,2.07,1.35,2.92,2.23,3,3.07,5.95,6.17,8.81,9.36.89,1,2.23,2.43,2,3.41l-.06.32c6.13-.35,13-3.19,19.26-2.07a12.41,12.41,0,0,1,1.5-.55c10.56-3.14,16.26-12.29,14.57-23.07-.52-3.27.48-5.21,2.45-7.43q68.28-77.07,136.47-154.21c3.93-4.44,7.92-8.82,11.84-13.18.71.51,1.09.63,1.19.87,1.44,3.72,2.61,7.57,4.31,11.16,1.9,4,1.24,6.38-2.33,9.53-40.63,35.87-59.46,80.88-53.42,135,9.32,83.38,86.86,143.43,170.42,132.93A152.53,152.53,0,0,0,2701,514.75c1.86-8.57,2.68-17.36,4-26.05v-13C2703.37,465.72,2702.34,455.61,2700,445.8Zm-524.68,76.41c-18.35,55.59-75.1,91.11-134.06,82.52-47.83-7-81.59-33.87-98.68-78.84s-9.43-87.78,22.28-124.2c34.62-39.76,79.16-50.29,129.68-38.41a96.57,96.57,0,0,1,28.57,11.22,13.28,13.28,0,0,1-.84,1.7q-32.16,42.72-64.42,85.36a9,9,0,0,1-4.47,2.59c-9.07,2.78-14.25,11.53-11.79,20.18,2.54,8.89,11.08,13.56,20.4,11.35a15.73,15.73,0,0,1,6.26-.2q27.73,5.08,55.43,10.43c17.63,3.38,35.24,6.83,53.42,10.36C2176.36,518.74,2175.89,520.49,2175.32,522.21Zm5.9-32.2-104.55-17,66-85.65C2174.43,414.59,2181.94,450.26,2181.22,490Zm29,6.28c2.08-25.08-.8-48.85-9.31-71.84-8.59-23.21-22.66-42.78-40.92-59.8,13-15.51,25.65-30.66,38.88-46.49,20.09,61.24,39.93,121.74,60,183ZM2438,317.36q-69.33,77.47-138.3,155.27a20.81,20.81,0,0,0-2.15,3.78l-1.63-1.25c0-.25.06-.5.08-.74a12.78,12.78,0,0,0-1.55-.65c-3.41,1.35-6.59.77-9.69-.47a29.37,29.37,0,0,1-4,.05l0,.23-1.22.2c-.39-1.2-.79-2.39-1.19-3.59h0Q2251,387.24,2223.47,303.9c2-.09,3-.18,4-.18q102.72.06,205.45.25c1.72,0,4.45,1.2,5,2.51C2439.13,309.89,2441.75,313.17,2438,317.36Zm187.53,264.4c-54.23,40.69-131.16,29.62-172.62-25.24s-27.62-126.77,14.79-164.17c.53.51.89.69,1,1,12.46,34.65,34.85,61.76,63.61,84.1,1.71,1.33,2.76,4,3.36,6.2,2.12,7.95,8.19,13,15.71,12.73a16.48,16.48,0,0,0,15.54-13.77c1.11-8-3.55-15.15-11.19-18a37.17,37.17,0,0,1-9.85-5.3c-4.86-3.77-9.33-8.06-13.87-12.22-21.27-19.46-34.2-43.82-41.85-71.24,48.58-29.89,120.8-21.9,161.73,33.85C2692.15,464.54,2680.35,540.62,2625.53,581.76Z"/>
        <path d="M2278.34,470.19c.4,1.2.8,2.39,1.19,3.59l1.22-.2,0-.23c-.48,0-1-.08-1.44-.16.48.08,1,.12,1.44.16l.24-1.8C2280.12,471.1,2279.23,470.63,2278.34,470.19Z" style="fill: #fff"/>
        <path d="M2272.06,529.53c-12.46,2.14-24.87,4.52-37.34,6.84-.27,3.79-.5,7-.74,10.48l-10.21.62c-.23-11.31-.45-22.17-.67-33l11,.28c.13,2.7.24,5,.38,7.69,11.61-2.63,22.75-5.27,34-7.63,3.07-.65,4.93-1.78,6.18-4.48C2275.58,516.61,2272.57,523.41,2272.06,529.53Z"/>
      </g>
    </g>
    <g>
      <g>
        <path d="M497.8,284.55,509,306.45a12,12,0,0,1-13.11,10.77L372.52,305.1A12,12,0,0,1,361.75,292l2.82-28.65a12,12,0,0,1,13.12-10.77L490.76,269C497.33,269.59,497.8,284.55,497.8,284.55Z"/>
        <rect x="454.2" y="267" width="41.49" height="181.94" rx="12" transform="translate(170.46 -152.92) rotate(22.2)"/>
      </g>
      <g>
        <path d="M661.2,231q-5.25-5.16-10.78-10c-45-39.82-90.3-79.34-135-119.55-16.56-14.92-33.59-19.48-53.54-8.22-34.2,19.29-68.58,38.29-102.41,58.24-11.45,6.75-22.76,14.73-31.79,24.35-16.22,17.3-17.1,38.65-1.73,56.66a229.94,229.94,0,0,0,39.18,35.85c24.8,18.12,38.43,28,46.55,39.59,13.45-14.81,27.35-29.69,43.77-41.3-15.22-14.39-30.44-29-47.63-45.31,28.54-15.59,54.42-30.93,81.53-43.69,7-3.28,19.42-1.09,26.58,3.2,18.88,11.32,36.12,25.34,54.23,38,22.14,15.43,44.07,31.23,67,45.45,9.41,5.85,21.8,8.32,29.68-3.5C674.12,249.76,669.92,239.56,661.2,231Z"/>
        <path d="M578.22,3.45c26.49,9.49,40.11,37.74,30.8,63.82a50.89,50.89,0,0,1-65.6,31C517.74,89.14,503.89,59.84,513,33.93,522.76,6.06,550-6.67,578.22,3.45Z"/>
      </g>
      <g>
        <path d="M450.48,481.8c3.59-12.12,7.4-24.18,11.17-36.29l10.49.5c.63-3.5,1.18-6.53,1.82-10.06l-32.7-4.54-1,11,7.59,1.28c-4,11.22-7.91,22-11.57,32.83-1,3-2.34,4.69-5.17,5.61C437.23,483.77,444.34,481.58,450.48,481.8Z"/>
        <path d="M856,445.8c-14.83-62.33-69.83-109.5-133.68-115.3-29.83-2.71-58,2.94-85.2,16.41-.84-2.23-1.67-4.34-2.44-6.47q-20-55.12-40.06-110.23c-1.07-2.93-1-5.2.65-7.88,4-6.48,7.78-13.16,11.76-20-8.8-9.56-17.43-19-26.2-28.37a6,6,0,0,0-3.91-1.65c-18.5-.06-37,0-55.49.07a6.94,6.94,0,0,0-1.55.59c-.31,4.95-.63,10.19-1,16,2.16.1,3.92.25,5.68.26,13.83,0,27.67,0,41.5,0,4.3,0,14.18,7.12,15.14,11.13.22.93-.41,2.18-.92,3.14-2.85,5.27-6,10.39-8.56,15.8a11.77,11.77,0,0,0-.83,7.4c4.45,16.7,9.22,33.31,14.14,50.85H379.38c-9.18,0-9.18,0-11.39-9.87,1.19-.34,2.38-.78,3.61-1a177.53,177.53,0,0,0,43.91-14.61,23,23,0,0,0,2.63-1.43c3.2-2.08,7.25-4,6-8.67-1.13-4.37-5.34-5.09-9.25-5.33q-15-.92-29.95-1.6c-28.63-1.35-57.26-2.71-85.89-3.92-4.06-.18-9-.88-11.16,3.59s1.85,7.66,4.39,10.83c9.86,12.35,23.49,17.73,38.5,20,5.14.78,7.05,3.33,9.37,7.7,6,11.24,4,19.56-4.68,28.92C322.41,316.3,311,332,298.86,347.05c-1.24,1.54-2.54,3-3.91,4.65a161.06,161.06,0,0,0-57.82-20.25C161.7,319.79,87.8,367.18,67.29,440.92c-2.75,9.88-3.64,20.26-5.39,30.41-.31,1.79-.6,3.58-.9,5.37v12c1,7,1.78,14.12,3,21.14C75.29,576,133.08,629.77,200.2,634.28c66.18,4.45,115.93-23.66,149-80.94,5.67-9.83,9.26-20.85,14-31.82,14.18,2.59,28.9,5.25,43.58,8.05,1.08.21,2.07,1.35,2.92,2.23,3,3.07,6,6.17,8.81,9.36.89,1,2.23,2.43,2,3.41l-.06.32c6.13-.35,13-3.19,19.26-2.07a12.41,12.41,0,0,1,1.5-.55c10.56-3.14,16.26-12.29,14.57-23.07-.52-3.27.48-5.21,2.45-7.43q68.28-77.07,136.47-154.21c3.93-4.44,7.92-8.82,11.84-13.18.71.51,1.09.63,1.19.87,1.44,3.72,2.61,7.57,4.31,11.16,1.9,4,1.24,6.38-2.33,9.53-40.63,35.87-59.46,80.88-53.42,135,9.32,83.38,86.86,143.43,170.42,132.93A152.53,152.53,0,0,0,857,514.75c1.86-8.57,2.68-17.36,4-26.05v-13C859.37,465.72,858.34,455.61,856,445.8ZM331.32,522.21c-18.35,55.59-75.1,91.11-134.06,82.52-47.83-7-81.59-33.87-98.68-78.84s-9.43-87.78,22.28-124.2c34.62-39.76,79.16-50.29,129.68-38.41a96.57,96.57,0,0,1,28.57,11.22,13.28,13.28,0,0,1-.84,1.7q-32.16,42.72-64.42,85.36a9,9,0,0,1-4.47,2.59c-9.07,2.78-14.25,11.53-11.79,20.18,2.54,8.89,11.08,13.56,20.4,11.35a15.73,15.73,0,0,1,6.26-.2q27.74,5.08,55.43,10.43c17.63,3.38,35.24,6.83,53.42,10.36C332.36,518.74,331.89,520.49,331.32,522.21Zm5.9-32.2L232.67,473l66-85.65C330.43,414.59,337.94,450.26,337.22,490Zm29,6.28c2.08-25.08-.8-48.85-9.31-71.84-8.59-23.21-22.66-42.78-40.92-59.8,13-15.51,25.65-30.66,38.88-46.49,20.09,61.24,39.93,121.74,60,183ZM594,317.36q-69.33,77.47-138.3,155.27a20.81,20.81,0,0,0-2.15,3.78l-1.63-1.25c0-.25.06-.5.08-.74a12.78,12.78,0,0,0-1.55-.65c-3.41,1.35-6.59.77-9.69-.47a29.37,29.37,0,0,1-4,.05l0,.23-1.22.2c-.39-1.2-.79-2.39-1.19-3.59h0Q407,387.24,379.47,303.9c2-.09,3-.18,4-.18q102.72.06,205.45.25c1.72,0,4.45,1.2,5,2.51C595.13,309.89,597.75,313.17,594,317.36Zm187.53,264.4c-54.23,40.69-131.16,29.62-172.62-25.24S581.29,429.75,623.7,392.35c.53.51.89.69,1,1,12.46,34.65,34.85,61.76,63.61,84.1,1.71,1.33,2.76,4,3.36,6.2,2.12,7.95,8.19,13,15.71,12.73a16.48,16.48,0,0,0,15.54-13.77c1.11-8-3.55-15.15-11.19-18a37.17,37.17,0,0,1-9.85-5.3c-4.86-3.77-9.33-8.06-13.87-12.22-21.27-19.46-34.2-43.82-41.85-71.24C694.73,346,767,353.94,807.88,409.69,848.15,464.54,836.35,540.62,781.53,581.76Z"/>
        <path d="M434.34,470.19c.4,1.2.8,2.39,1.19,3.59l1.22-.2,0-.23c-.48,0-1-.08-1.44-.16.48.08,1,.12,1.44.16l.24-1.8C436.12,471.1,435.23,470.63,434.34,470.19Z" style="fill: #fff"/>
        <path d="M438.88,536.5c1.25,12.57,2.74,25.13,4.17,37.73l10.4,1.48c0,3.56-.07,6.64-.1,10.23l-33-1.68,1.07-11,7.69.16c-1.8-11.77-3.64-23.07-5.2-34.42-.43-3.1-1.42-5-4-6.48C426.24,532.07,432.81,535.55,438.88,536.5Z"/>
      </g>
      <rect x="399.05" y="252.61" width="41.49" height="327.79" rx="12" transform="translate(-69.02 83.69) rotate(-10.53)"/>
    </g>
    <g>
      <g>
        <path d="M1583.2,231q-5.25-5.16-10.78-10c-45-39.82-90.3-79.34-135-119.55-16.56-14.92-33.59-19.48-53.54-8.22-34.2,19.29-68.58,38.29-102.41,58.24-11.45,6.75-22.76,14.73-31.79,24.35-16.22,17.3-17.1,38.65-1.73,56.66a229.94,229.94,0,0,0,39.18,35.85c24.8,18.12,38.43,28,46.55,39.59,13.45-14.81,27.35-29.69,43.77-41.3-15.22-14.39-30.44-29-47.63-45.31,28.54-15.59,54.42-30.93,81.53-43.69,7-3.28,19.42-1.09,26.58,3.2,18.88,11.32,36.12,25.34,54.23,38,22.14,15.43,44.07,31.23,67,45.45,9.41,5.85,21.8,8.32,29.68-3.5C1596.12,249.76,1591.92,239.56,1583.2,231Z"/>
        <path d="M1500.22,3.45c26.49,9.49,40.11,37.74,30.8,63.82a50.89,50.89,0,0,1-65.6,31c-25.68-9.15-39.53-38.45-30.44-64.36C1444.76,6.06,1472-6.67,1500.22,3.45Z"/>
      </g>
      <g>
        <path d="M1335.06,522.62c-10.46,7.1-21,14-31.63,21-2.83-2.54-5.25-4.73-7.8-7l-7.79,6.63,22.42,24.23,7.72-7.84c-1.77-2-3.27-3.75-5.06-5.8,10.19-6.16,20-12,29.76-18.07,2.65-1.66,4.78-2.14,7.55-1.07C1346.56,529.48,1339.67,526.67,1335.06,522.62Z"/>
        <path d="M1778,445.8c-14.83-62.33-69.83-109.5-133.68-115.3-29.83-2.71-58,2.94-85.2,16.41-.84-2.23-1.67-4.34-2.44-6.47q-20-55.12-40.06-110.23c-1.07-2.93-1-5.2.65-7.88,4-6.48,7.78-13.16,11.76-20-8.8-9.56-17.43-19-26.2-28.37a6,6,0,0,0-3.91-1.65c-18.5-.06-37,0-55.49.07a6.94,6.94,0,0,0-1.55.59c-.31,4.95-.63,10.19-1,16,2.16.1,3.92.25,5.68.26,13.83,0,27.67,0,41.5,0,4.3,0,14.18,7.12,15.14,11.13.22.93-.41,2.18-.92,3.14-2.85,5.27-6,10.39-8.56,15.8a11.77,11.77,0,0,0-.83,7.4c4.45,16.7,9.22,33.31,14.14,50.85H1301.38c-9.18,0-9.18,0-11.39-9.87,1.19-.34,2.38-.78,3.61-1a177.53,177.53,0,0,0,43.91-14.61,23,23,0,0,0,2.63-1.43c3.2-2.08,7.25-4,6-8.67-1.13-4.37-5.34-5.09-9.25-5.33q-15-.92-30-1.6c-28.63-1.35-57.26-2.71-85.89-3.92-4.06-.18-9-.88-11.16,3.59s1.85,7.66,4.39,10.83c9.86,12.35,23.49,17.73,38.5,20,5.14.78,7,3.33,9.37,7.7,6,11.24,4,19.56-4.68,28.92-13.1,14.15-24.51,29.86-36.65,44.9-1.24,1.54-2.54,3-3.91,4.65a161.06,161.06,0,0,0-57.82-20.25c-75.43-11.66-149.33,35.73-169.84,109.47-2.75,9.88-3.64,20.26-5.39,30.41-.31,1.79-.6,3.58-.9,5.37v12c1,7,1.78,14.12,3,21.14,11.32,66.2,69.11,119.93,136.23,124.44,66.18,4.45,115.93-23.66,149-80.94,5.67-9.83,9.26-20.85,14-31.82,14.18,2.59,28.9,5.25,43.58,8.05,1.08.21,2.07,1.35,2.92,2.23,3,3.07,6,6.17,8.81,9.36.89,1,2.23,2.43,2,3.41l-.06.32c6.13-.35,13-3.19,19.26-2.07a12.41,12.41,0,0,1,1.5-.55c10.56-3.14,16.26-12.29,14.57-23.07-.52-3.27.48-5.21,2.45-7.43q68.28-77.07,136.47-154.21c3.93-4.44,7.92-8.82,11.84-13.18.71.51,1.09.63,1.19.87,1.44,3.72,2.61,7.57,4.31,11.16,1.9,4,1.24,6.38-2.33,9.53-40.63,35.87-59.46,80.88-53.42,135,9.32,83.38,86.86,143.43,170.42,132.93A152.53,152.53,0,0,0,1779,514.75c1.86-8.57,2.68-17.36,4-26.05v-13C1781.37,465.72,1780.34,455.61,1778,445.8Zm-524.68,76.41c-18.35,55.59-75.1,91.11-134.06,82.52-47.83-7-81.59-33.87-98.68-78.84s-9.43-87.78,22.28-124.2c34.62-39.76,79.16-50.29,129.68-38.41a96.57,96.57,0,0,1,28.57,11.22,13.28,13.28,0,0,1-.84,1.7q-32.16,42.72-64.42,85.36a9,9,0,0,1-4.47,2.59c-9.07,2.78-14.25,11.53-11.79,20.18,2.54,8.89,11.08,13.56,20.4,11.35a15.73,15.73,0,0,1,6.26-.2q27.74,5.08,55.43,10.43c17.63,3.38,35.24,6.83,53.42,10.36C1254.36,518.74,1253.89,520.49,1253.32,522.21Zm5.9-32.2-104.55-17,66-85.65C1252.43,414.59,1259.94,450.26,1259.22,490Zm29,6.28c2.08-25.08-.8-48.85-9.31-71.84-8.59-23.21-22.66-42.78-40.92-59.8,13-15.51,25.65-30.66,38.88-46.49,20.09,61.24,39.93,121.74,60,183ZM1516,317.36q-69.33,77.47-138.3,155.27a20.81,20.81,0,0,0-2.15,3.78l-1.63-1.25c0-.25.06-.5.08-.74a12.78,12.78,0,0,0-1.55-.65c-3.41,1.35-6.59.77-9.69-.47a29.37,29.37,0,0,1-4,.05l0,.23-1.22.2c-.39-1.2-.79-2.39-1.19-3.59h0Q1329,387.24,1301.47,303.9c2-.09,3-.18,4-.18q102.72.06,205.45.25c1.72,0,4.45,1.2,4.95,2.51C1517.13,309.89,1519.75,313.17,1516,317.36Zm187.53,264.4c-54.23,40.69-131.16,29.62-172.62-25.24s-27.62-126.77,14.79-164.17c.53.51.89.69,1,1,12.46,34.65,34.85,61.76,63.61,84.1,1.71,1.33,2.76,4,3.36,6.2,2.12,7.95,8.19,13,15.71,12.73a16.48,16.48,0,0,0,15.54-13.77c1.11-8-3.55-15.15-11.19-18a37.17,37.17,0,0,1-9.85-5.3c-4.86-3.77-9.33-8.06-13.87-12.22-21.27-19.46-34.2-43.82-41.85-71.24,48.58-29.89,120.8-21.9,161.73,33.85C1770.15,464.54,1758.35,540.62,1703.53,581.76Z"/>
        <path d="M1356.34,470.19c.4,1.2.8,2.39,1.19,3.59l1.22-.2,0-.23c-.48,0-1-.08-1.44-.16.48.08,1,.12,1.44.16l.24-1.8C1358.12,471.1,1357.23,470.63,1356.34,470.19Z" style="fill: #fff"/>
        <path d="M1366.19,503.18c8.81-9.06,17.46-18.28,26.18-27.5-2-3.22-3.75-6-5.57-8.9l7.89-6.51c6.84,9,13.4,17.67,20,26.29l-9.07,6.25-4.82-6c-7.85,9-15.31,17.65-23,26.15-2.1,2.33-2.94,4.34-2.36,7.26C1370.94,515.7,1369.38,508.43,1366.19,503.18Z"/>
      </g>
      <g>
        <path d="M1432.86,281.83l11.24,21.9A12,12,0,0,1,1431,314.5l-123.41-12.13a12,12,0,0,1-10.77-13.12l2.82-28.64a12,12,0,0,1,13.12-10.77L1432,268.59C1438.57,269.24,1432.86,281.83,1432.86,281.83Z"/>
        <rect x="1395.01" y="267.25" width="41.49" height="215.38" rx="12" transform="translate(59.64 -178.14) rotate(7.35)"/>
      </g>
      <g>
        <path d="M1362.34,368.5l-9.58,19.73c-5,2.5-11.45-.29-14.41-6.19L1282.7,271.23c-3-5.9-1.33-12.76,3.64-15.25L1308,245.1c5-2.49,11.44.3,14.41,6.19l47.27,104C1372.64,361.17,1362.34,368.5,1362.34,368.5Z"/>
        <rect x="1308.78" y="344.63" width="41.49" height="215.38" rx="19.54" transform="matrix(0.97, 0.25, -0.25, 0.97, 159.11, -323.8)"/>
      </g>
    </g>
    <g>
      <g>
        <path d="M3427.2,231q-5.25-5.16-10.78-10c-45-39.82-90.3-79.34-135-119.55-16.56-14.92-33.59-19.48-53.54-8.22-34.2,19.29-68.58,38.29-102.41,58.24-11.45,6.75-22.76,14.73-31.79,24.35-16.22,17.3-17.1,38.65-1.73,56.66a229.94,229.94,0,0,0,39.18,35.85c24.8,18.12,38.43,28,46.55,39.59,13.45-14.81,19.87-28.64,36.28-40.26-15.22-14.38-22.95-30-40.14-46.35,28.54-15.59,54.42-30.93,81.53-43.69,7-3.28,19.42-1.09,26.58,3.2,18.88,11.32,36.12,25.34,54.23,38,22.14,15.43,44.07,31.23,67,45.45,9.41,5.85,21.8,8.32,29.68-3.5C3440.12,249.76,3435.92,239.56,3427.2,231Z"/>
        <path d="M3344.22,3.45c26.49,9.49,40.11,37.74,30.8,63.82a50.89,50.89,0,0,1-65.6,31c-25.68-9.15-39.53-38.45-30.44-64.36C3288.76,6.06,3316-6.67,3344.22,3.45Z"/>
      </g>
      <g>
        <path d="M3183.48,497.15c-9.87-7.88-19.61-15.95-29.41-24l4.41-9.53-8.64-5.47-16.51,28.58,9.78,5.06,4-6.55c8.9,7.9,17.39,15.59,26.06,23.07,2.38,2.05,3.46,3.94,3.26,6.9C3180.33,510.17,3181,502.76,3183.48,497.15Z"/>
        <path d="M3622,445.8c-14.83-62.33-69.83-109.5-133.68-115.3-29.83-2.71-58,2.94-85.2,16.41-.84-2.23-1.67-4.34-2.44-6.47q-20-55.12-40.06-110.23c-1.07-2.93-1-5.2.65-7.88,4-6.48,7.78-13.16,11.76-20-8.8-9.56-17.43-19-26.2-28.37a6,6,0,0,0-3.91-1.65c-18.5-.06-37,0-55.49.07a6.94,6.94,0,0,0-1.55.59c-.31,4.95-.63,10.19-1,16,2.16.1,3.92.25,5.68.26,13.83,0,27.67,0,41.5,0,4.3,0,14.18,7.12,15.14,11.13.22.93-.41,2.18-.92,3.14-2.85,5.27-6,10.39-8.56,15.8a11.77,11.77,0,0,0-.83,7.4c4.45,16.7,9.22,33.31,14.14,50.85H3145.38c-9.18,0-9.18,0-11.39-9.87,1.19-.34,2.38-.78,3.61-1a177.53,177.53,0,0,0,43.91-14.61,23,23,0,0,0,2.63-1.43c3.2-2.08,7.25-4,6-8.67-1.13-4.37-5.34-5.09-9.25-5.33q-15-.92-29.95-1.6c-28.63-1.35-57.26-2.71-85.89-3.92-4.06-.18-9.05-.88-11.16,3.59s1.85,7.66,4.39,10.83c9.86,12.35,23.49,17.73,38.5,20,5.14.78,7,3.33,9.37,7.7,6,11.24,4,19.56-4.68,28.92-13.1,14.15-24.51,29.86-36.65,44.9-1.24,1.54-2.54,3-3.91,4.65a161.06,161.06,0,0,0-57.82-20.25c-75.43-11.66-149.33,35.73-169.84,109.47-2.75,9.88-3.64,20.26-5.39,30.41-.31,1.79-.6,3.58-.9,5.37v12c1,7,1.78,14.12,3,21.14,11.32,66.2,69.11,119.93,136.23,124.44,66.18,4.45,115.93-23.66,149-80.94,5.67-9.83,9.26-20.85,14-31.82,14.18,2.59,28.9,5.25,43.58,8.05,1.08.21,2.07,1.35,2.92,2.23,3,3.07,5.95,6.17,8.81,9.36.89,1,2.23,2.43,2,3.41l-.06.32c6.13-.35,13-3.19,19.26-2.07a12.41,12.41,0,0,1,1.5-.55c10.56-3.14,16.26-12.29,14.57-23.07-.52-3.27.48-5.21,2.45-7.43q68.28-77.07,136.47-154.21c3.93-4.44,7.92-8.82,11.84-13.18.71.51,1.09.63,1.19.87,1.44,3.72,2.61,7.57,4.31,11.16,1.9,4,1.24,6.38-2.33,9.53-40.63,35.87-59.46,80.88-53.42,135,9.32,83.38,86.86,143.43,170.42,132.93A152.53,152.53,0,0,0,3623,514.75c1.86-8.57,2.68-17.36,4-26.05v-13C3625.37,465.72,3624.34,455.61,3622,445.8Zm-524.68,76.41c-18.35,55.59-75.1,91.11-134.06,82.52-47.83-7-81.59-33.87-98.68-78.84s-9.43-87.78,22.28-124.2c34.62-39.76,79.16-50.29,129.68-38.41a96.57,96.57,0,0,1,28.57,11.22,13.28,13.28,0,0,1-.84,1.7q-32.16,42.72-64.42,85.36a9,9,0,0,1-4.47,2.59c-9.07,2.78-14.25,11.53-11.79,20.18,2.54,8.89,11.08,13.56,20.4,11.35a15.73,15.73,0,0,1,6.26-.2q27.73,5.08,55.43,10.43c17.63,3.38,35.24,6.83,53.42,10.36C3098.36,518.74,3097.89,520.49,3097.32,522.21Zm5.9-32.2-104.55-17,66-85.65C3096.43,414.59,3103.94,450.26,3103.22,490Zm29,6.28c2.08-25.08-.8-48.85-9.31-71.84-8.59-23.21-22.66-42.78-40.92-59.8,13-15.51,25.65-30.66,38.88-46.49,20.09,61.24,39.93,121.74,60,183ZM3360,317.36q-69.33,77.47-138.3,155.27a20.81,20.81,0,0,0-2.15,3.78l-1.63-1.25c0-.25.06-.5.08-.74a12.78,12.78,0,0,0-1.55-.65c-3.41,1.35-6.59.77-9.69-.47a29.37,29.37,0,0,1-4,.05l0,.23-1.22.2c-.39-1.2-.79-2.39-1.19-3.59h0Q3173,387.24,3145.47,303.9c2-.09,3-.18,4-.18q102.72.06,205.45.25c1.72,0,4.45,1.2,5,2.51C3361.13,309.89,3363.75,313.17,3360,317.36Zm187.53,264.4c-54.23,40.69-131.16,29.62-172.62-25.24s-27.62-126.77,14.79-164.17c.53.51.89.69,1,1,12.46,34.65,34.85,61.76,63.61,84.1,1.71,1.33,2.76,4,3.36,6.2,2.12,7.95,8.19,13,15.71,12.73a16.48,16.48,0,0,0,15.54-13.77c1.11-8-3.55-15.15-11.19-18a37.17,37.17,0,0,1-9.85-5.3c-4.86-3.77-9.33-8.06-13.87-12.22-21.27-19.46-34.2-43.82-41.85-71.24,48.58-29.89,120.8-21.9,161.73,33.85C3614.15,464.54,3602.35,540.62,3547.53,581.76Z"/>
        <path d="M3218.31,524.93c10.78,6.59,21.7,13,32.61,19.44l7.45-7.41,8.1,6.25-21.22,25.29-8.09-7.46,4.77-6c-10.47-5.66-20.6-11-30.59-16.6-2.74-1.53-4.89-1.91-7.6-.7C3207.15,532.35,3213.89,529.21,3218.31,524.93Z"/>
      </g>
      <path d="M3275.19,401.7,3260,411.93c-5.75,3.86-12.08,4.58-14.08,1.61l-92-136.93c-2-3,1.06-8.57,6.81-12.43L3175.88,254c5.75-3.86,27.76-2.77,38.12,13.64l68,121.68C3284,392.25,3280.93,397.84,3275.19,401.7Z"/>
      <g>
        <path d="M3220.47,351.36l-7,24.21c-5.13,4.16-13,3-17.48-2.5l-84.32-103.93c-4.48-5.53-4-13.46,1.16-17.62l22.36-18.13c5.12-4.16,13-3,17.47,2.5l73.54,99C3230.69,340.39,3220.47,351.36,3220.47,351.36Z"/>
        <rect x="3178.26" y="323.43" width="41.49" height="172.8" rx="12" transform="translate(809.12 -1755.82) rotate(34.88)"/>
        <rect x="3229.81" y="379.21" width="43.35" height="177.23" rx="12" transform="translate(83.34 -400.43) rotate(7.14)"/>
      </g>
    </g>
    <g>
      <g>
        <path d="M4349.2,231q-5.25-5.16-10.78-10c-45-39.82-90.3-79.34-135-119.55-16.56-14.92-33.59-19.48-53.54-8.22-34.2,19.29-68.58,38.29-102.41,58.24-11.45,6.75-22.76,14.73-31.79,24.35-16.22,17.3-17.1,38.65-1.73,56.66a229.94,229.94,0,0,0,39.18,35.85c24.8,18.12,38.43,28,46.55,39.59,13.45-14.81,27.35-29.69,43.77-41.3-15.22-14.39-30.44-29-47.63-45.31,28.54-15.59,54.42-30.93,81.53-43.69,7-3.28,19.42-1.09,26.58,3.2,18.88,11.32,36.12,25.34,54.23,38,22.14,15.43,44.07,31.23,67,45.45,9.41,5.85,21.8,8.32,29.68-3.5C4362.12,249.76,4357.92,239.56,4349.2,231Z"/>
        <path d="M4266.22,3.45c26.49,9.49,40.11,37.74,30.8,63.82a50.89,50.89,0,0,1-65.6,31c-25.68-9.15-39.53-38.45-30.44-64.36C4210.76,6.06,4238-6.67,4266.22,3.45Z"/>
      </g>
      <g>
        <path d="M4137.05,508.32c-2.14-12.46-4.05-25-6-37.49l9.63-4.19-2.82-9.83L4106.5,467.2l3.94,10.28,7.38-2.21c1.39,11.82,2.63,23.21,4.14,34.56.42,3.11,0,5.24-2.15,7.32C4126,516,4131.45,510.84,4137.05,508.32Z"/>
        <path d="M4544,445.8c-14.83-62.33-69.83-109.5-133.68-115.3-29.83-2.71-58,2.94-85.2,16.41-.84-2.23-1.67-4.34-2.44-6.47q-20-55.12-40.06-110.23c-1.07-2.93-1-5.2.65-7.88,4-6.48,7.78-13.16,11.76-20-8.8-9.56-17.43-19-26.2-28.37a6,6,0,0,0-3.91-1.65c-18.5-.06-37,0-55.49.07a6.94,6.94,0,0,0-1.55.59c-.31,4.95-.63,10.19-1,16,2.16.1,3.92.25,5.68.26,13.83,0,27.67,0,41.5,0,4.3,0,14.18,7.12,15.14,11.13.22.93-.41,2.18-.92,3.14-2.85,5.27-6,10.39-8.56,15.8a11.77,11.77,0,0,0-.83,7.4c4.45,16.7,9.22,33.31,14.14,50.85H4067.38c-9.18,0-9.18,0-11.39-9.87,1.19-.34,2.38-.78,3.61-1a177.53,177.53,0,0,0,43.91-14.61,23,23,0,0,0,2.63-1.43c3.2-2.08,7.25-4,6-8.67-1.13-4.37-5.34-5.09-9.25-5.33q-15-.92-30-1.6c-28.63-1.35-57.26-2.71-85.89-3.92-4.06-.18-9.05-.88-11.16,3.59s1.85,7.66,4.39,10.83c9.86,12.35,23.49,17.73,38.5,20,5.14.78,7,3.33,9.37,7.7,6,11.24,4,19.56-4.68,28.92-13.1,14.15-24.51,29.86-36.65,44.9-1.24,1.54-2.54,3-3.91,4.65a161.06,161.06,0,0,0-57.82-20.25c-75.43-11.66-149.33,35.73-169.84,109.47-2.75,9.88-3.64,20.26-5.39,30.41-.31,1.79-.6,3.58-.9,5.37v12c1,7,1.78,14.12,3,21.14,11.32,66.2,69.11,119.93,136.23,124.44,66.18,4.45,115.93-23.66,149-80.94,5.67-9.83,9.26-20.85,14-31.82,14.18,2.59,28.9,5.25,43.58,8.05,1.08.21,2.07,1.35,2.92,2.23,3,3.07,5.95,6.17,8.81,9.36.89,1,2.23,2.43,2,3.41l-.06.32c6.13-.35,13-3.19,19.26-2.07a12.41,12.41,0,0,1,1.5-.55c10.56-3.14,16.26-12.29,14.57-23.07-.52-3.27.48-5.21,2.45-7.43q68.28-77.07,136.47-154.21c3.93-4.44,7.92-8.82,11.84-13.18.71.51,1.09.63,1.19.87,1.44,3.72,2.61,7.57,4.31,11.16,1.9,4,1.24,6.38-2.33,9.53-40.63,35.87-59.46,80.88-53.42,135,9.32,83.38,86.86,143.43,170.42,132.93A152.53,152.53,0,0,0,4545,514.75c1.86-8.57,2.68-17.36,4-26.05v-13C4547.37,465.72,4546.34,455.61,4544,445.8Zm-524.68,76.41c-18.35,55.59-75.1,91.11-134.06,82.52-47.83-7-81.59-33.87-98.68-78.84s-9.43-87.78,22.28-124.2c34.62-39.76,79.16-50.29,129.68-38.41a96.57,96.57,0,0,1,28.57,11.22,13.28,13.28,0,0,1-.84,1.7q-32.16,42.72-64.42,85.36a9,9,0,0,1-4.47,2.59c-9.07,2.78-14.25,11.53-11.79,20.18,2.54,8.89,11.08,13.56,20.4,11.35a15.73,15.73,0,0,1,6.26-.2q27.73,5.08,55.43,10.43c17.63,3.38,35.24,6.83,53.42,10.36C4020.36,518.74,4019.89,520.49,4019.32,522.21Zm5.9-32.2-104.55-17,66-85.65C4018.43,414.59,4025.94,450.26,4025.22,490Zm29,6.28c2.08-25.08-.8-48.85-9.31-71.84-8.59-23.21-22.66-42.78-40.92-59.8,13-15.51,25.65-30.66,38.88-46.49,20.09,61.24,39.93,121.74,60,183ZM4282,317.36q-69.33,77.47-138.3,155.27a20.81,20.81,0,0,0-2.15,3.78l-1.63-1.25c0-.25.06-.5.08-.74a12.78,12.78,0,0,0-1.55-.65c-3.41,1.35-6.59.77-9.69-.47a29.37,29.37,0,0,1-4,.05l0,.23-1.22.2c-.39-1.2-.79-2.39-1.19-3.59h0Q4095,387.24,4067.47,303.9c2-.09,3-.18,4-.18q102.72.06,205.45.25c1.72,0,4.45,1.2,4.95,2.51C4283.13,309.89,4285.75,313.17,4282,317.36Zm187.53,264.4c-54.23,40.69-131.16,29.62-172.62-25.24s-27.62-126.77,14.79-164.17c.53.51.89.69,1,1,12.46,34.65,34.85,61.76,63.61,84.1,1.71,1.33,2.76,4,3.36,6.2,2.12,7.95,8.19,13,15.71,12.73a16.48,16.48,0,0,0,15.54-13.77c1.11-8-3.55-15.15-11.19-18a37.17,37.17,0,0,1-9.85-5.3c-4.86-3.77-9.33-8.06-13.87-12.22-21.27-19.46-34.2-43.82-41.85-71.24,48.58-29.89,120.8-21.9,161.73,33.85C4536.15,464.54,4524.35,540.62,4469.53,581.76Z"/>
        <path d="M4137.88,532.49c8.32,9.52,16.81,18.88,25.29,28.32l9.33-4.84,5.85,8.39-27.82,17.77-5.48-9.54,6.36-4.33c-8.3-8.54-16.36-16.67-24.22-25-2.15-2.28-4.08-3.28-7-2.94C4125,536.23,4132.39,535.25,4137.88,532.49Z"/>
      </g>
      <path d="M4188.09,407.07l-16.32,8.35c-6.16,3.15-12.54,3.12-14.17-.07l-75.17-146.86c-1.63-3.19,2.07-8.38,8.23-11.54L4107,248.6c6.16-3.15,30,8,36,18l53.32,128.94C4198,398.73,4194.25,403.92,4188.09,407.07Z"/>
      <g>
        <path d="M4152.34,359.66l-4.28,23.62c-4.51,3.65-12.18,1.72-17.06-4.29l-91.66-113c-4.88-6-5.19-13.93-.68-17.58l19.65-15.94c4.51-3.66,12.19-1.73,17.07,4.28l80.78,106.91C4161,349.68,4152.34,359.66,4152.34,359.66Z"/>
        <path d="M4132.29,468.1l-16.42-6a12.21,12.21,0,0,1-7-15.73L4157,302.72c2.34-6.38,10.63-.77,16.83,1.5l16.42,6a12.23,12.23,0,0,1,7,15.73l-49.4,134.67A12.21,12.21,0,0,1,4132.29,468.1Z"/>
        <rect x="4142.38" y="386.18" width="43.35" height="183.34" rx="12" transform="translate(108.83 -581.81) rotate(8.1)"/>
      </g>
    </g>
  </g>
</svg>
