<svg width="182" height="105" viewBox="0 0 182 105" fill="none" xmlns="http://www.w3.org/2000/svg">
<path d="M36.4712 41.8452C30.2199 42.4387 24.8404 44.4743 20.055 48.0614C18.5164 49.2244 15.8997 51.7694 14.6275 53.3443C11.9134 56.7131 9.7693 60.9899 8.72731 65.1585C6.34093 74.6461 8.53372 84.6792 14.6275 92.24C15.1728 92.9063 16.3116 94.1421 17.1594 94.9786C26.5486 104.164 40.6138 106.405 52.4021 100.601C55.9032 98.8802 58.2776 97.1471 61.0037 94.3363C63.354 91.9129 64.9047 89.7564 66.4072 86.8236C68.9998 81.7223 70.1747 75.7484 69.666 70.1871C69.1087 64.2379 67.0247 58.7727 63.4995 54.0713C62.3607 52.5565 59.7922 49.9154 58.2902 48.7037C52.6564 44.1598 45.6302 41.7117 38.5305 41.7971C37.634 41.7971 36.7008 41.8332 36.4712 41.8452ZM41.0991 44.4142C41.6077 44.4629 42.0683 44.5477 42.1164 44.5958C42.2132 44.6926 38.9183 63.571 38.7848 63.7285C38.7361 63.7772 37.9371 59.4998 37.0039 54.2169C36.0587 48.934 35.3077 44.5958 35.3318 44.5717C35.514 44.3775 39.4877 44.2686 41.0991 44.4142ZM35.0173 44.6318C35.0173 44.6679 35.817 49.1516 36.7863 54.5921C37.7555 60.0326 38.5552 64.6492 38.5552 64.8555C38.5672 65.0491 38.4463 65.8856 38.3008 66.6974C38.0946 67.7636 37.9737 68.1876 37.8523 68.1876C37.7435 68.1876 37.6827 68.3211 37.6827 68.5267C37.6827 68.9627 37.3677 69.3993 37.0646 69.3993C36.9191 69.3993 36.6768 69.2905 36.5072 69.157C36.3377 69.0234 36.1194 68.9146 36.0347 68.9146C35.9499 68.9146 35.2957 68.5147 34.5808 68.018L33.2965 67.1093L28.0265 59.5605C25.1308 55.4046 22.4654 51.5998 22.1023 51.0784L21.4481 50.1577L22.926 49.1643C26.1488 47.0192 30.0377 45.4443 33.8779 44.754C35.0654 44.535 35.0173 44.5471 35.0173 44.6318ZM44.6483 44.947C47.3497 45.4804 50.9723 46.9218 53.4922 48.4366C54.91 49.2972 56 50.121 55.9393 50.2906C55.9032 50.3754 53.2619 54.1922 50.0638 58.7727L44.2364 67.1214L42.9281 68.018C42.2132 68.5147 41.571 68.9146 41.4983 68.9146C41.4375 68.9146 41.2439 69.0234 41.0744 69.157C40.7233 69.4233 40.3114 69.4721 40.1412 69.2417C40.0685 69.169 39.9717 68.8906 39.935 68.6362C39.8742 68.297 39.8015 68.1876 39.6686 68.2363C39.5718 68.273 39.4991 68.285 39.4991 68.273C39.4991 68.261 39.3656 67.4972 39.196 66.5766L38.905 64.9162L40.5891 55.3679C41.5223 50.121 42.346 45.5411 42.4188 45.1893L42.5523 44.5471L42.9882 44.6318C43.2311 44.6685 43.9821 44.8141 44.6483 44.947ZM57.7816 51.6238C58.8356 52.5572 60.8101 54.6655 61.0765 55.1375C61.1372 55.2464 58.8109 56.9428 53.2866 60.7963C48.9497 63.8253 45.3151 66.3583 45.2056 66.4184C44.9513 66.5759 44.7571 66.8543 50.8755 58.0938C54.5462 52.847 56.3031 50.4115 56.4119 50.4722C56.4973 50.5209 57.1027 51.0423 57.7816 51.6238ZM24.8765 55.6102C26.839 58.4336 29.3468 62.0321 30.4616 63.6317C31.8667 65.6432 32.376 66.4551 32.1337 66.2975C31.9401 66.164 28.3175 63.6437 24.0775 60.6875C18.9042 57.0763 16.3964 55.259 16.4571 55.1502C16.9417 54.3017 20.7946 50.4975 21.1577 50.4975C21.2425 50.4969 22.902 52.7989 24.8765 55.6102ZM63.1364 58.0818C64.4934 60.3236 65.6803 63.1951 66.3351 65.7521C66.6261 66.9031 67.0133 68.9387 66.9532 68.9994C66.9292 69.0234 62.3614 69.8479 56.801 70.8414L46.6721 72.6466L44.6369 72.2828C43.5101 72.0771 42.5169 71.8588 42.4441 71.7981C42.2018 71.6045 42.2625 71.2647 42.5896 70.8774C42.9528 70.4415 42.9654 70.3687 42.6503 70.3687C42.5169 70.3687 42.408 70.3446 42.408 70.3079C42.408 70.2712 42.8686 69.5809 43.438 68.7691L44.4553 67.303L52.912 61.4019L61.3675 55.5014L61.9489 56.2892C62.276 56.7372 62.8093 57.537 63.1364 58.0818ZM24.7436 61.5474L33.0669 67.3517L34.0968 68.8298C34.9446 70.0776 35.0781 70.32 34.8845 70.3446C34.5814 70.3934 34.5935 70.5142 34.9572 70.8534C35.2843 71.1565 35.3571 71.5924 35.1148 71.7987C35.03 71.8595 34.0367 72.0771 32.91 72.2834L30.8747 72.6346L20.7453 70.8414C15.1842 69.8479 10.605 69.0241 10.5804 68.9874C10.5563 68.9633 10.6772 68.2483 10.8467 67.3878C11.3674 64.734 12.143 62.444 13.3546 60.0205C14.4573 57.8154 16.0079 55.5007 16.2743 55.6583C16.3597 55.707 20.1638 58.3608 24.7436 61.5474ZM39.0758 67.4972C39.3181 68.8906 39.2821 69.0241 38.7608 69.0361C38.2882 69.0361 38.2401 68.733 38.4824 67.3397C38.6032 66.6006 38.7367 66.0431 38.7854 66.0919C38.8215 66.152 38.9544 66.7822 39.0758 67.4972ZM43.1824 68.6362C42.8673 69.0968 42.4435 69.6904 42.2499 69.9688C41.9468 70.3927 41.85 70.4655 41.6685 70.3567C41.4262 70.2352 41.3654 69.7144 41.535 69.424C41.6197 69.2905 43.6069 67.8364 43.7157 67.8244C43.7398 67.8244 43.4975 68.1876 43.1824 68.6362ZM35.8771 69.3145C36.1802 69.5448 36.2529 69.896 36.0467 70.1991C35.9379 70.3567 35.8044 70.4902 35.7557 70.4902C35.6589 70.4902 34.3625 68.709 33.9867 68.0787C33.9146 67.9452 34.8718 68.5754 35.8771 69.3145ZM21.6544 71.2894C26.1247 72.0771 29.7593 72.7561 29.7226 72.7922C29.6986 72.8282 25.3611 73.616 20.1031 74.5493L10.5563 76.2578L10.4595 75.7003C10.3381 74.9973 10.3381 70.3326 10.4595 69.7511L10.5443 69.3151L12.0342 69.5815C12.8465 69.7264 17.1714 70.4902 21.6544 71.2894ZM67.1702 72.5498C67.1702 73.9798 67.1335 75.3972 67.0854 75.7003L66.9886 76.2578L57.4418 74.5493C52.1838 73.616 47.847 72.8282 47.8229 72.7922C47.7869 72.7561 52.075 71.9683 57.3451 71.023L66.9405 69.3145L67.0494 69.6296C67.0974 69.7992 67.1582 71.1198 67.1702 72.5498ZM38.9911 70.1991C38.7608 70.4294 38.5305 70.3326 38.5305 70.0055C38.5305 69.7144 38.7848 69.6296 39.0151 69.8359C39.1606 69.9808 39.1606 70.0295 38.9911 70.1991ZM37.6581 70.3927C37.634 70.5503 37.5366 70.6711 37.4398 70.6711C37.343 70.6711 37.2462 70.5497 37.2215 70.3927C37.1848 70.1865 37.2456 70.1263 37.4398 70.1263C37.634 70.1263 37.6947 70.1871 37.6581 70.3927ZM40.4202 70.2599C40.5417 70.4655 40.1419 70.8173 39.9717 70.6477C39.8869 70.5629 39.8629 70.4174 39.8989 70.3206C39.9843 70.1023 40.2994 70.0656 40.4202 70.2599ZM39.754 71.2533C41.0383 72.1138 40.7353 74.0646 39.2574 74.4886C38.3242 74.755 37.1855 74.0279 37.0159 73.0706C36.9071 72.3923 37.2702 71.5557 37.8276 71.2166C38.385 70.8774 39.2213 70.8894 39.754 71.2533ZM36.6888 71.3741C36.7375 71.6285 36.3617 71.7981 36.2282 71.5798C36.0827 71.3495 36.2282 71.0711 36.4585 71.1191C36.568 71.1445 36.6648 71.2533 36.6888 71.3741ZM41.4135 71.3741C41.4622 71.6165 41.1105 71.7861 40.9289 71.6045C40.7473 71.4229 40.9169 71.0711 41.1592 71.1198C41.2806 71.1445 41.3895 71.2533 41.4135 71.3741ZM34.5808 72.5985C34.9446 72.7441 35.259 73.2047 35.1141 73.3496C35.0534 73.3977 32.4 72.9497 32.1097 72.8282C31.9161 72.7555 33.1276 72.465 33.7818 72.4403C33.9994 72.441 34.3632 72.5011 34.5808 72.5985ZM36.3257 72.7074C36.3744 72.9738 35.9986 73.1313 35.8651 72.901C35.7436 72.7194 35.9499 72.3923 36.1561 72.465C36.2289 72.4891 36.301 72.5985 36.3257 72.7074ZM41.7773 72.7074C41.826 72.9497 41.4742 73.1193 41.2927 72.9377C41.1111 72.7561 41.2806 72.4043 41.523 72.453C41.6438 72.477 41.7532 72.5859 41.7773 72.7074ZM44.8305 72.5985C45.7269 72.7801 45.6662 72.8289 44.1643 73.0952C43.5709 73.1921 42.9528 73.3135 42.8072 73.3376C42.2619 73.4591 42.5649 72.7314 43.1343 72.5137C43.4374 72.4043 43.9941 72.4283 44.8305 72.5985ZM32.5215 73.2161C33.4547 73.3857 34.3632 73.5553 34.5207 73.592L34.8117 73.6527L34.5454 73.9311C34.2303 74.2583 34.3151 74.3671 34.8965 74.3671C35.7443 74.3671 35.6962 74.5367 34.3271 76.4875L33.0428 78.3048L26.622 82.7878C15.2937 90.6891 16.2509 90.0469 16.0446 89.8653C15.6328 89.5261 14.1182 87.0659 13.2824 85.3822C12.3012 83.4314 11.4408 80.9592 10.9929 78.8508C10.7018 77.5303 10.5323 76.5488 10.581 76.5488C10.6538 76.5362 30.7286 72.9377 30.7646 72.9257C30.7766 72.913 31.5763 73.0465 32.5215 73.2161ZM56.4606 74.6702C61.5611 75.5668 66.0074 76.3666 66.3585 76.4394L66.9886 76.5609L66.9159 77.0089C66.5888 79.3596 65.5588 82.7037 64.4808 84.9456C63.33 87.345 61.5731 90.0836 61.258 89.9621C61.1732 89.926 57.3571 87.2842 52.7773 84.085L44.4667 78.2813L43.2431 76.5368C42.577 75.5795 42.0556 74.7195 42.0683 74.6101C42.0923 74.4886 42.2739 74.4164 42.589 74.3918C43.2552 74.331 43.3887 74.1735 43.0129 73.883C42.8433 73.7495 42.7345 73.6407 42.7705 73.6407C42.8066 73.6287 43.655 73.4711 44.6483 73.2768C45.6536 73.0952 46.6354 72.9497 46.829 72.9864C47.0353 73.0105 51.3601 73.7615 56.4606 74.6702ZM36.6888 74.1007C36.7255 74.295 36.6648 74.3671 36.4832 74.3671C36.1681 74.3671 36.0473 74.1608 36.2409 73.9311C36.4345 73.7008 36.6407 73.7736 36.6888 74.1007ZM41.4135 74.1127C41.3895 74.2216 41.28 74.319 41.1592 74.343C40.9048 74.3918 40.7353 74.0159 40.9529 73.8824C41.1838 73.7375 41.4622 73.8824 41.4135 74.1127ZM37.6821 75.0941C37.6821 75.2517 37.5973 75.3365 37.4398 75.3365C37.2823 75.3365 37.1975 75.2517 37.1975 75.0941C37.1975 74.9366 37.2823 74.8518 37.4398 74.8518C37.5973 74.8518 37.6821 74.9366 37.6821 75.0941ZM40.4082 75.0941C40.4082 75.1909 40.2867 75.2884 40.1419 75.3124C39.9236 75.3491 39.8635 75.2884 39.8635 75.0941C39.8635 74.9005 39.9242 74.8398 40.1419 74.8758C40.2874 74.9005 40.4082 74.9973 40.4082 75.0941ZM39.0151 75.2764C39.1967 75.4947 39.0758 75.7003 38.7608 75.7003C38.6153 75.7003 38.5305 75.6155 38.5305 75.482C38.5305 75.0821 38.7728 74.9733 39.0151 75.2764ZM36.277 76.0154C36.0834 76.173 35.4412 76.6336 34.8472 77.0329L33.7811 77.784L34.484 76.7539C34.8839 76.1844 35.235 75.7845 35.2717 75.8452C35.3324 75.942 35.514 75.918 35.817 75.7965C36.4712 75.5307 36.7375 75.6636 36.277 76.0154ZM42.2739 75.918C42.3346 75.8939 42.6738 76.2818 43.0129 76.7785C43.364 77.2632 43.5702 77.6264 43.4854 77.5783C43.1824 77.3967 41.3774 76.1483 41.1592 75.9547C40.9409 75.7731 40.9409 75.7611 41.1592 75.6883C41.2806 75.6522 41.547 75.6883 41.7653 75.7851C41.9835 75.8699 42.2132 75.9306 42.2739 75.918ZM36.9311 77.0329C36.9678 77.0329 37.1614 76.8874 37.343 76.7058C37.5486 76.5121 37.7308 76.4274 37.7909 76.5001C37.8516 76.5609 38.0573 77.5303 38.2515 78.6572L38.6153 80.7048L36.8103 90.8226C35.829 96.3966 35.0053 100.964 34.9807 100.977C34.9199 101.037 32.8606 100.649 31.7339 100.358C29.1172 99.692 26.3183 98.5043 23.992 97.099C22.7318 96.3359 21.569 95.4993 21.569 95.3544C21.569 95.3057 24.2103 91.4889 27.4324 86.8723L33.2845 78.475L35.0294 77.2512L36.7736 76.0395L36.8097 76.5362C36.8343 76.8152 36.883 77.0329 36.9311 77.0329ZM42.8673 77.5783L44.2364 78.5357L50.1125 86.9451C55.0068 93.9605 55.964 95.3905 55.8305 95.536C55.4793 95.96 52.9955 97.4748 51.3114 98.2987C48.646 99.5952 46.1629 100.407 43.5822 100.819C42.5403 100.989 42.5282 100.989 42.4675 100.734C42.4314 100.601 41.6191 96.0328 40.6505 90.5923L38.9063 80.7042L39.2821 78.5718C39.6939 76.2938 39.7547 76.1603 40.2513 76.7298C40.6632 77.2145 40.8694 77.1297 40.772 76.5235L40.6872 76.0148L41.087 76.3179C41.3167 76.4881 42.1164 77.0576 42.8673 77.5783ZM38.5305 76.9728C38.676 77.4208 39.0151 77.5543 39.0151 77.1784C39.0151 77.0576 39.0999 76.8513 39.2087 76.7178C39.3903 76.4875 39.3903 76.4875 39.3295 76.7298C39.2935 76.8633 39.184 77.4929 39.0752 78.1231C38.7842 79.8923 38.7601 79.9044 38.4571 78.244C38.2996 77.4081 38.1787 76.657 38.1787 76.5716C38.1667 76.2818 38.385 76.5362 38.5305 76.9728ZM32.388 79.2507C32.3393 79.3475 29.8074 82.9707 26.7789 87.3083C23.2531 92.3609 21.2178 95.1602 21.1331 95.1115C20.3821 94.6749 16.8804 91.1732 16.4565 90.4341C16.3957 90.3253 18.9036 88.5074 24.3799 84.6906C28.7895 81.6128 32.4241 79.0925 32.4488 79.0925C32.4608 79.0932 32.4367 79.1659 32.388 79.2507ZM57.1635 87.5506C59.3322 89.0534 61.0644 90.3373 61.0404 90.4221C60.9316 90.9068 57.2242 94.6508 56.4125 95.1115C56.3157 95.1722 54.438 92.5792 50.7547 87.3083C47.7261 82.9707 45.2056 79.3475 45.1576 79.2627C45.1088 79.178 46.9018 80.3897 49.1553 81.9526C51.4088 83.5275 55.0068 86.0485 57.1635 87.5506ZM40.5297 91.4769C41.4502 96.663 42.1651 100.94 42.1164 100.989C41.9228 101.182 38.7241 101.304 37.0646 101.182C36.1321 101.109 35.3564 101.037 35.3324 101.013C35.3084 100.989 36.0593 96.6503 37.0045 91.3674C37.9377 86.0965 38.7488 81.8438 38.7854 81.9159C38.8335 82.0013 39.6085 86.3028 40.5297 91.4769Z" fill="black"/>
<path d="M81.4712 42.8452C75.2199 43.4387 69.8404 45.4743 65.055 49.0614C63.5164 50.2244 60.8997 52.7694 59.6275 54.3443C56.9134 57.7131 54.7693 61.9899 53.7273 66.1585C51.3409 75.6461 53.5337 85.6792 59.6275 93.24C60.1728 93.9063 61.3116 95.1421 62.1594 95.9786C71.5486 105.164 85.6138 107.405 97.4021 101.601C100.903 99.8802 103.278 98.1471 106.004 95.3363C108.354 92.9129 109.905 90.7564 111.407 87.8236C114 82.7223 115.175 76.7484 114.666 71.1871C114.109 65.2379 112.025 59.7727 108.5 55.0713C107.361 53.5565 104.792 50.9154 103.29 49.7037C97.6564 45.1598 90.6302 42.7117 83.5305 42.7971C82.634 42.7971 81.7008 42.8332 81.4712 42.8452ZM86.0991 45.4142C86.6077 45.4629 87.0683 45.5477 87.1164 45.5958C87.2132 45.6926 83.9183 64.571 83.7848 64.7285C83.7361 64.7772 82.9371 60.4998 82.0039 55.2169C81.0587 49.934 80.3077 45.5958 80.3318 45.5717C80.514 45.3775 84.4877 45.2686 86.0991 45.4142ZM80.0173 45.6318C80.0173 45.6679 80.817 50.1516 81.7863 55.5921C82.7555 61.0326 83.5552 65.6492 83.5552 65.8555C83.5672 66.0491 83.4463 66.8856 83.3008 67.6974C83.0946 68.7636 82.9737 69.1876 82.8523 69.1876C82.7435 69.1876 82.6827 69.3211 82.6827 69.5267C82.6827 69.9627 82.3677 70.3993 82.0646 70.3993C81.9191 70.3993 81.6768 70.2905 81.5072 70.157C81.3377 70.0234 81.1194 69.9146 81.0347 69.9146C80.9499 69.9146 80.2957 69.5147 79.5808 69.018L78.2965 68.1093L73.0265 60.5605C70.1308 56.4046 67.4654 52.5998 67.1023 52.0784L66.4481 51.1577L67.926 50.1643C71.1488 48.0192 75.0377 46.4443 78.8779 45.754C80.0654 45.535 80.0173 45.5471 80.0173 45.6318ZM89.6483 45.947C92.3497 46.4804 95.9723 47.9218 98.4922 49.4366C99.91 50.2972 101 51.121 100.939 51.2906C100.903 51.3754 98.2619 55.1922 95.0638 59.7727L89.2364 68.1214L87.9281 69.018C87.2132 69.5147 86.571 69.9146 86.4983 69.9146C86.4375 69.9146 86.2439 70.0234 86.0744 70.157C85.7233 70.4233 85.3114 70.4721 85.1412 70.2417C85.0685 70.169 84.9717 69.8906 84.935 69.6362C84.8742 69.297 84.8015 69.1876 84.6686 69.2363C84.5718 69.273 84.4991 69.285 84.4991 69.273C84.4991 69.261 84.3656 68.4972 84.196 67.5766L83.905 65.9162L85.5891 56.3679C86.5223 51.121 87.346 46.5411 87.4188 46.1893L87.5523 45.5471L87.9882 45.6318C88.2311 45.6685 88.9821 45.8141 89.6483 45.947ZM102.782 52.6238C103.836 53.5572 105.81 55.6655 106.076 56.1375C106.137 56.2464 103.811 57.9428 98.2866 61.7963C93.9497 64.8253 90.3151 67.3583 90.2056 67.4184C89.9513 67.5759 89.7571 67.8543 95.8755 59.0938C99.5462 53.847 101.303 51.4115 101.412 51.4722C101.497 51.5209 102.103 52.0423 102.782 52.6238ZM69.8765 56.6102C71.839 59.4336 74.3468 63.0321 75.4616 64.6317C76.8667 66.6432 77.376 67.4551 77.1337 67.2975C76.9401 67.164 73.3175 64.6437 69.0775 61.6875C63.9042 58.0763 61.3964 56.259 61.4571 56.1502C61.9417 55.3017 65.7946 51.4975 66.1577 51.4975C66.2425 51.4969 67.902 53.7989 69.8765 56.6102ZM108.136 59.0818C109.493 61.3236 110.68 64.1951 111.335 66.7521C111.626 67.9031 112.013 69.9387 111.953 69.9994C111.929 70.0234 107.361 70.8479 101.801 71.8414L91.6721 73.6466L89.6369 73.2828C88.5101 73.0771 87.5169 72.8588 87.4441 72.7981C87.2018 72.6045 87.2625 72.2647 87.5896 71.8774C87.9528 71.4415 87.9654 71.3687 87.6503 71.3687C87.5169 71.3687 87.408 71.3446 87.408 71.3079C87.408 71.2712 87.8686 70.5809 88.438 69.7691L89.4553 68.303L97.912 62.4019L106.367 56.5014L106.949 57.2892C107.276 57.7372 107.809 58.537 108.136 59.0818ZM69.7436 62.5474L78.0669 68.3517L79.0968 69.8298C79.9446 71.0776 80.0781 71.32 79.8845 71.3446C79.5814 71.3934 79.5935 71.5142 79.9572 71.8534C80.2843 72.1565 80.3571 72.5924 80.1148 72.7987C80.03 72.8595 79.0367 73.0771 77.91 73.2834L75.8747 73.6346L65.7453 71.8414C60.1842 70.8479 55.605 70.0241 55.5804 69.9874C55.5563 69.9633 55.6772 69.2483 55.8467 68.3878C56.3674 65.734 57.143 63.444 58.3546 61.0205C59.4573 58.8154 61.0079 56.5007 61.2743 56.6583C61.3597 56.707 65.1638 59.3608 69.7436 62.5474ZM84.0758 68.4972C84.3181 69.8906 84.2821 70.0241 83.7608 70.0361C83.2882 70.0361 83.2401 69.733 83.4824 68.3397C83.6032 67.6006 83.7367 67.0431 83.7854 67.0919C83.8215 67.152 83.9544 67.7822 84.0758 68.4972ZM88.1824 69.6362C87.8673 70.0968 87.4435 70.6904 87.2499 70.9688C86.9468 71.3927 86.85 71.4655 86.6685 71.3567C86.4262 71.2352 86.3654 70.7144 86.535 70.424C86.6197 70.2905 88.6069 68.8364 88.7157 68.8244C88.7398 68.8244 88.4975 69.1876 88.1824 69.6362ZM80.8771 70.3145C81.1802 70.5448 81.2529 70.896 81.0467 71.1991C80.9379 71.3567 80.8044 71.4902 80.7557 71.4902C80.6589 71.4902 79.3625 69.709 78.9867 69.0787C78.9146 68.9452 79.8718 69.5754 80.8771 70.3145ZM66.6544 72.2894C71.1247 73.0771 74.7593 73.7561 74.7226 73.7922C74.6986 73.8282 70.3611 74.616 65.1031 75.5493L55.5563 77.2578L55.4595 76.7003C55.3381 75.9973 55.3381 71.3326 55.4595 70.7511L55.5443 70.3151L57.0342 70.5815C57.8465 70.7264 62.1714 71.4902 66.6544 72.2894ZM112.17 73.5498C112.17 74.9798 112.134 76.3972 112.085 76.7003L111.989 77.2578L102.442 75.5493C97.1838 74.616 92.847 73.8282 92.8229 73.7922C92.7869 73.7561 97.075 72.9683 102.345 72.023L111.941 70.3145L112.049 70.6296C112.097 70.7992 112.158 72.1198 112.17 73.5498ZM83.9911 71.1991C83.7608 71.4294 83.5305 71.3326 83.5305 71.0055C83.5305 70.7144 83.7848 70.6296 84.0151 70.8359C84.1606 70.9808 84.1606 71.0295 83.9911 71.1991ZM82.6581 71.3927C82.634 71.5503 82.5366 71.6711 82.4398 71.6711C82.343 71.6711 82.2462 71.5497 82.2215 71.3927C82.1848 71.1865 82.2456 71.1263 82.4398 71.1263C82.634 71.1263 82.6947 71.1871 82.6581 71.3927ZM85.4202 71.2599C85.5417 71.4655 85.1419 71.8173 84.9717 71.6477C84.8869 71.5629 84.8629 71.4174 84.8989 71.3206C84.9843 71.1023 85.2994 71.0656 85.4202 71.2599ZM84.754 72.2533C86.0383 73.1138 85.7353 75.0646 84.2574 75.4886C83.3242 75.755 82.1855 75.0279 82.0159 74.0706C81.9071 73.3923 82.2702 72.5557 82.8276 72.2166C83.385 71.8774 84.2213 71.8894 84.754 72.2533ZM81.6888 72.3741C81.7375 72.6285 81.3617 72.7981 81.2282 72.5798C81.0827 72.3495 81.2282 72.0711 81.4585 72.1191C81.568 72.1445 81.6648 72.2533 81.6888 72.3741ZM86.4135 72.3741C86.4622 72.6165 86.1105 72.7861 85.9289 72.6045C85.7473 72.4229 85.9169 72.0711 86.1592 72.1198C86.2806 72.1445 86.3895 72.2533 86.4135 72.3741ZM79.5808 73.5985C79.9446 73.7441 80.259 74.2047 80.1141 74.3496C80.0534 74.3977 77.4 73.9497 77.1097 73.8282C76.9161 73.7555 78.1276 73.465 78.7818 73.4403C78.9994 73.441 79.3632 73.5011 79.5808 73.5985ZM81.3257 73.7074C81.3744 73.9738 80.9986 74.1313 80.8651 73.901C80.7436 73.7194 80.9499 73.3923 81.1561 73.465C81.2289 73.4891 81.301 73.5985 81.3257 73.7074ZM86.7773 73.7074C86.826 73.9497 86.4742 74.1193 86.2927 73.9377C86.1111 73.7561 86.2806 73.4043 86.523 73.453C86.6438 73.477 86.7532 73.5859 86.7773 73.7074ZM89.8305 73.5985C90.7269 73.7801 90.6662 73.8289 89.1643 74.0952C88.5709 74.1921 87.9528 74.3135 87.8072 74.3376C87.2619 74.4591 87.5649 73.7314 88.1343 73.5137C88.4374 73.4043 88.9941 73.4283 89.8305 73.5985ZM77.5215 74.2161C78.4547 74.3857 79.3632 74.5553 79.5207 74.592L79.8117 74.6527L79.5454 74.9311C79.2303 75.2583 79.3151 75.3671 79.8965 75.3671C80.7443 75.3671 80.6962 75.5367 79.3271 77.4875L78.0428 79.3048L71.622 83.7878C60.2937 91.6891 61.2509 91.0469 61.0446 90.8653C60.6328 90.5261 59.1182 88.0659 58.2824 86.3822C57.3012 84.4314 56.4408 81.9592 55.9929 79.8508C55.7018 78.5303 55.5323 77.5488 55.581 77.5488C55.6538 77.5362 75.7286 73.9377 75.7646 73.9257C75.7766 73.913 76.5763 74.0465 77.5215 74.2161ZM101.461 75.6702C106.561 76.5668 111.007 77.3666 111.358 77.4394L111.989 77.5609L111.916 78.0089C111.589 80.3596 110.559 83.7037 109.481 85.9456C108.33 88.345 106.573 91.0836 106.258 90.9621C106.173 90.926 102.357 88.2842 97.7773 85.085L89.4667 79.2813L88.2431 77.5368C87.577 76.5795 87.0556 75.7195 87.0683 75.6101C87.0923 75.4886 87.2739 75.4164 87.589 75.3918C88.2552 75.331 88.3887 75.1735 88.0129 74.883C87.8433 74.7495 87.7345 74.6407 87.7705 74.6407C87.8066 74.6287 88.655 74.4711 89.6483 74.2768C90.6536 74.0952 91.6354 73.9497 91.829 73.9864C92.0353 74.0105 96.3601 74.7615 101.461 75.6702ZM81.6888 75.1007C81.7255 75.295 81.6648 75.3671 81.4832 75.3671C81.1681 75.3671 81.0473 75.1608 81.2409 74.9311C81.4345 74.7008 81.6407 74.7736 81.6888 75.1007ZM86.4135 75.1127C86.3895 75.2216 86.28 75.319 86.1592 75.343C85.9048 75.3918 85.7353 75.0159 85.9529 74.8824C86.1838 74.7375 86.4622 74.8824 86.4135 75.1127ZM82.6821 76.0941C82.6821 76.2517 82.5973 76.3365 82.4398 76.3365C82.2823 76.3365 82.1975 76.2517 82.1975 76.0941C82.1975 75.9366 82.2823 75.8518 82.4398 75.8518C82.5973 75.8518 82.6821 75.9366 82.6821 76.0941ZM85.4082 76.0941C85.4082 76.1909 85.2867 76.2884 85.1419 76.3124C84.9236 76.3491 84.8635 76.2884 84.8635 76.0941C84.8635 75.9005 84.9242 75.8398 85.1419 75.8758C85.2874 75.9005 85.4082 75.9973 85.4082 76.0941ZM84.0151 76.2764C84.1967 76.4947 84.0758 76.7003 83.7608 76.7003C83.6153 76.7003 83.5305 76.6155 83.5305 76.482C83.5305 76.0821 83.7728 75.9733 84.0151 76.2764ZM81.277 77.0154C81.0834 77.173 80.4412 77.6336 79.8472 78.0329L78.7811 78.784L79.484 77.7539C79.8839 77.1844 80.235 76.7845 80.2717 76.8452C80.3324 76.942 80.514 76.918 80.817 76.7965C81.4712 76.5307 81.7375 76.6636 81.277 77.0154ZM87.2739 76.918C87.3346 76.8939 87.6738 77.2818 88.0129 77.7785C88.364 78.2632 88.5702 78.6264 88.4854 78.5783C88.1824 78.3967 86.3774 77.1483 86.1592 76.9547C85.9409 76.7731 85.9409 76.7611 86.1592 76.6883C86.2806 76.6522 86.547 76.6883 86.7653 76.7851C86.9835 76.8699 87.2132 76.9306 87.2739 76.918ZM81.9311 78.0329C81.9678 78.0329 82.1614 77.8874 82.343 77.7058C82.5486 77.5121 82.7308 77.4274 82.7909 77.5001C82.8516 77.5609 83.0573 78.5303 83.2515 79.6572L83.6153 81.7048L81.8103 91.8226C80.829 97.3966 80.0053 101.964 79.9807 101.977C79.9199 102.037 77.8606 101.649 76.7339 101.358C74.1172 100.692 71.3183 99.5043 68.992 98.099C67.7318 97.3359 66.569 96.4993 66.569 96.3544C66.569 96.3057 69.2103 92.4889 72.4324 87.8723L78.2845 79.475L80.0294 78.2512L81.7736 77.0395L81.8097 77.5362C81.8343 77.8152 81.883 78.0329 81.9311 78.0329ZM87.8673 78.5783L89.2364 79.5357L95.1125 87.9451C100.007 94.9605 100.964 96.3905 100.83 96.536C100.479 96.96 97.9955 98.4748 96.3114 99.2987C93.646 100.595 91.1629 101.407 88.5822 101.819C87.5403 101.989 87.5282 101.989 87.4675 101.734C87.4314 101.601 86.6191 97.0328 85.6505 91.5923L83.9063 81.7042L84.2821 79.5718C84.6939 77.2938 84.7547 77.1603 85.2513 77.7298C85.6632 78.2145 85.8694 78.1297 85.772 77.5235L85.6872 77.0148L86.087 77.3179C86.3167 77.4881 87.1164 78.0576 87.8673 78.5783ZM83.5305 77.9728C83.676 78.4208 84.0151 78.5543 84.0151 78.1784C84.0151 78.0576 84.0999 77.8513 84.2087 77.7178C84.3903 77.4875 84.3903 77.4875 84.3295 77.7298C84.2935 77.8633 84.184 78.4929 84.0752 79.1231C83.7842 80.8923 83.7601 80.9044 83.4571 79.244C83.2996 78.4081 83.1787 77.657 83.1787 77.5716C83.1667 77.2818 83.385 77.5362 83.5305 77.9728ZM77.388 80.2507C77.3393 80.3475 74.8074 83.9707 71.7789 88.3083C68.2531 93.3609 66.2178 96.1602 66.1331 96.1115C65.3821 95.6749 61.8804 92.1732 61.4565 91.4341C61.3957 91.3253 63.9036 89.5074 69.3799 85.6906C73.7895 82.6128 77.4241 80.0925 77.4488 80.0925C77.4608 80.0932 77.4367 80.1659 77.388 80.2507ZM102.163 88.5506C104.332 90.0534 106.064 91.3373 106.04 91.4221C105.932 91.9068 102.224 95.6508 101.413 96.1115C101.316 96.1722 99.438 93.5792 95.7547 88.3083C92.7261 83.9707 90.2056 80.3475 90.1576 80.2627C90.1088 80.178 91.9018 81.3897 94.1553 82.9526C96.4088 84.5275 100.007 87.0485 102.163 88.5506ZM85.5297 92.4769C86.4502 97.663 87.1651 101.94 87.1164 101.989C86.9228 102.182 83.7241 102.304 82.0646 102.182C81.1321 102.109 80.3564 102.037 80.3324 102.013C80.3084 101.989 81.0593 97.6503 82.0045 92.3674C82.9377 87.0965 83.7488 82.8438 83.7854 82.9159C83.8335 83.0013 84.6085 87.3028 85.5297 92.4769Z" fill="black"/>
<path d="M90.6515 5.73386C90.5673 6.27479 90.5112 6.68048 90.427 7.05913C90.2867 7.08618 90.1745 7.11323 90.0342 7.14027C89.894 6.54525 89.7256 5.92318 89.5573 5.21997C87.2567 4.94951 84.8719 4.86837 82.5712 5.57158C80.8037 6.11251 79.5692 7.3296 78.7556 8.95239C75.6133 15.3895 72.499 21.7995 69.3567 28.2365C67.5611 31.9149 64.6152 33.9163 60.2945 33.8893C56.5911 33.8352 52.9157 33.9163 49.2122 33.727C45.8174 33.5377 43.5729 31.6173 42.142 28.6963C39.0558 22.3945 35.8574 16.1468 32.8834 9.79083C31.3964 6.62639 29.0117 5.05769 25.4485 5.11179C24.186 5.13883 22.9515 5.11179 21.6328 5.11179C21.5206 5.84204 21.4084 6.49116 21.2962 7.16732C21.1839 7.24846 21.0436 7.30255 20.9314 7.38369C20.8192 5.32816 19.3883 5.7609 18.238 5.7609C12.8512 5.7609 7.49242 5.7609 2.1056 5.7609C0.422219 5.7609 0.0294295 5.35521 0.00137311 3.78651C-0.0266833 2.16372 0.366106 1.75802 2.02143 1.75802C7.6327 1.75802 13.244 1.75802 18.8552 1.75802C19.3603 1.75802 19.8653 1.75802 20.4825 1.75802C20.5947 1.29823 20.707 0.892534 20.8192 0.486837C20.9595 0.45979 21.0717 0.405697 21.212 0.378651C21.3523 0.919581 21.4925 1.43346 21.717 2.24486C23.2882 2.24486 24.9435 2.21781 26.5988 2.24486C30.6389 2.35304 33.4446 4.30039 35.2682 7.70825C35.4085 7.97872 35.633 8.24918 35.7171 8.54669C36.3344 11.1972 38.158 11.5759 40.7112 11.5489C51.1762 11.4136 61.6693 11.4677 72.1343 11.5218C73.5932 11.5218 74.463 11.1432 74.996 9.76378C75.4449 8.54669 76.0902 7.35665 76.8478 6.30183C78.6434 3.89469 81.0562 2.38009 84.2546 2.29895C86.0222 2.24486 87.7897 2.13667 89.6415 2.05553C89.7256 1.54165 89.7817 1.02777 89.9501 0C90.8198 2.54237 92.6435 1.70393 94.0744 1.73098C99.0684 1.81212 104.09 1.75802 109.085 1.75802C110.852 1.75802 111.273 2.21781 111.245 3.97583C111.245 5.38225 110.824 5.7609 109.113 5.7609C103.557 5.7609 98.0303 5.7609 92.4752 5.7609C91.886 5.73386 91.3248 5.73386 90.6515 5.73386ZM38.158 13.4692C38.1861 13.7126 38.158 13.8749 38.2141 13.983C40.4587 18.635 42.6751 23.287 45.0038 27.8849C46.098 30.0487 48.118 31.0223 50.6431 30.9953C53.9538 30.9682 57.2644 30.9953 60.6031 30.9953C63.2965 30.9953 65.2324 29.8323 66.3827 27.4792C68.3467 23.4493 70.3387 19.4464 72.3307 15.4165C72.6112 14.8215 72.8637 14.1994 73.1724 13.4692C61.4167 13.4692 49.8575 13.4692 38.158 13.4692Z" fill="black"/>
<path d="M130.984 35.8157C131.531 34.9151 131.963 34.104 132.508 33.3497C135.666 28.7673 139.982 25.9813 145.323 25.623C157.039 24.8029 166.238 29.4772 172.513 39.5497C175.747 44.782 175.593 50.548 173.273 56.2881C171.795 59.8798 169.087 61.8223 165.303 62.2304C160.81 62.7222 156.471 62.0415 152.294 60.5977C145.972 58.44 140.155 55.3239 135.546 50.3172C133.57 48.1819 132.152 45.4823 130.547 43.0196C130.254 42.5412 130.048 41.886 130.039 41.3303C130.017 37.7905 127.625 36.2173 125.09 34.7926C123.161 33.7099 121.174 32.7451 119.173 31.8097C118.031 31.271 117.712 30.6321 118.361 29.3789C119.312 27.5799 120.193 25.7819 121.06 23.9403C121.508 22.9534 122.106 22.6665 123.195 22.7378C126.731 23.0503 129.676 24.4981 132.057 27.2417C132.729 28.0215 132.879 28.6483 132.445 29.5326C131.724 30.9331 131.073 32.4058 130.324 33.7922C129.805 34.707 129.97 35.3043 130.984 35.8157ZM159.586 30.8647C157.649 30.5135 155.885 29.9549 154.102 29.9379C152.29 29.9067 151.612 31.2188 152.319 32.7881C153.609 35.6066 159.371 38.548 162.364 37.8885C164.052 37.5267 164.716 36.1708 163.64 34.7827C162.45 33.3377 160.974 32.1896 159.586 30.8647Z" fill="black"/>
<path d="M167.8 62.4415C165.717 64.1112 163.134 64.8669 160.399 65.069C154.081 65.5592 148.322 63.7588 142.915 60.7389C138.028 58.0184 133.715 54.5578 131.103 49.3455C130.131 47.3852 129.685 45.1391 129.182 43.0109C138.548 56.9573 151.341 63.4061 167.8 62.4415Z" fill="black"/>
</svg>
