<svg id="Layer_1" data-name="Layer 1" xmlns="http://www.w3.org/2000/svg" width="103.02" height="103.02" viewBox="0 0 103.02 103.02">
  <title>error</title>
  <path d="M51.53,0A51.51,51.51,0,1,1,0,51.48,51.52,51.52,0,0,1,51.53,0Zm8.79,22.39c0-.4,0-.75-.08-1.09a10.14,10.14,0,0,0-4.79-7.39,7,7,0,0,0-5-1.12A8.35,8.35,0,0,0,46,15.13a9.67,9.67,0,0,0-3.23,7.78c.07,1.26.23,2.51.34,3.76q.31,3.64.64,7.3c.3,3.29.61,6.59.92,9.88l.57,6.43c.25,2.74.5,5.47.74,8.21.15,1.72.22,3.46.44,5.18a9.52,9.52,0,0,0,2,5,3.85,3.85,0,0,0,6.13.11,9.76,9.76,0,0,0,2.13-5.23c.18-1.24.19-2.5.31-3.75.27-3.05.56-6.1.84-9.15l.57-6.26c.24-2.69.49-5.38.73-8.08.27-3.05.55-6.1.82-9.15C60,25.53,60.18,23.94,60.32,22.39ZM59,82.34c0-.36,0-.63-.06-.91a5.58,5.58,0,0,0-.1-.68,7.75,7.75,0,0,0-4.41-5.86A7.39,7.39,0,0,0,45,77.64,8.26,8.26,0,0,0,47.13,89a7,7,0,0,0,7.64.4A7.9,7.9,0,0,0,59,82.34Z" style="fill: red"/>
</svg>
