<svg id="Layer_1" data-name="Layer 1" xmlns="http://www.w3.org/2000/svg" width="284.71" height="281.13" viewBox="0 0 284.71 281.13">
  <title>logo_black</title>
  <g>
    <path d="M79,128.83c-12.78,10.43-23.81,6.41-34.85,2.38a14.17,14.17,0,0,0-3.45-1c-19.08-1.83-29.52-16-39.46-29.78C-1.5,96.69,1,88.72,2.06,82.84c.11-.61,6.85-.7,10.25.12,7.25,1.73,14.72,3.37,21.4,6.56C48.94,96.79,63.77,96.41,79.47,91c7.09-2.47,11.71-5.68,14.68-12.66C96,74,99.79,70.52,103.51,65.63c-2.37-7.55-5.22-16.6-7.91-25.17C81.48,41.76,70.89,47,63.07,57.59a43,43,0,0,1-6.87,7.15c-1.4,1.19-3.44,1.62-5.19,2.39-.43-2.11-1.57-4.36-1.19-6.31,1.86-9.47,3.72-19,6.47-28.22,1-3.25,3.92-7,6.91-8.35,16-7.36,32.43-13.9,48.57-21,5.46-2.42,8.38-1.11,11.7,3.9,10.08,15.23,18.86,30.8,18.19,49.71,6.05.35,6.05.35,19.9,18.25,11.58-7.64,22.61-15.24,27.48-29.82,2.06-6.15-.82-8.54-4-12.24-3.6-4.16-6.91-3.43-11-1.36a138.48,138.48,0,0,1-13.95,6.17c-1.75.65-3.93.1-5.91.1-.32-.85-.64-1.69-1-2.54,12.29-11.72,24.48-23.56,37-35,1.11-1,5.06,0,7,1.26,9.89,6.24,19.42,13.06,29.36,19.23,5,3.1,5.35,6.24,4.05,11.93-3.13,13.71-12.79,25.77-8.27,41.7,1.89,6.68,3.83,8.15,9.62,8.21,15.37.17,26.92-8.74,39.26-16C274.14,65,278,64.84,281.38,64c1.13,5,4.28,10.58,3,14.87-5.2,18.09-17.9,29.1-35.55,34.72a8.5,8.5,0,0,0-4.77,5.15c-3.28,12.6-6.09,25.33-9.06,38-1.07,2.06,1.76,5.15,1.16,7.26-2.34,8.34,3.11,10.64,8.64,13.15,10.89,4.93,14,12.06,10.64,23.84-1,3.44-2.77,7.28-2.1,10.5,2.6,12.41-1.27,20.53-13,23.46,0,6.09,1.88,12.76-.6,16.37-2,2.86-9.28,2-14.49,2.78,1.08,6.37,2.33,12.86,3.23,19.4.34,2.49-.1,5.1-.19,7.65-2.75-.45-5.78-.31-8.2-1.46-10.12-4.82-20.06-10-30.47-15.31-1.22,3.18-1.75,5.25-2.76,7.05-1.25,2.22-2.9,4.22-4.37,6.32-2-1.64-4.22-3-5.85-5-3-3.58-5.67-7.48-8.56-11.35-7.74,9-7.94,9-14.44-.08-3.16-4.41-6.14-9-9.62-13.1-1.82-2.17-4.29-4.48-6.87-5.15-8.38-2.15-17.17-5.72-25.39-4.84-18.81,2-29.63-6.48-36.16-22.93-1.58-4-3.91-8.31-3.6-12.3C73.89,179.29,76.4,155.64,79,128.83Zm-5.43,8.41c-1.14,18.46-.58,37.07-4,54.92-2.31,12.21.62,20.85,5.81,31.17,7.25,14.39,17,19.2,32.7,18.63,17.66-.65,34.5,3.55,43,22.4a23.37,23.37,0,0,0,2,3c3.08,4.63,6.7,6.36,12.17,3.51,1.6-.84,4.34.56,6.56.93C87.33,291.75,12.81,210.39,24.2,130,40.72,131.17,55.37,144.7,73.57,137.24Zm185.58,74.85-2.42-.7c.67-2.55,1.28-5.12,2-7.64,4.67-15.66,1.26-23.45-12.9-30.57-2.39-1.21-5.61-3.7-5.82-5.86-.77-8.11-2.35-16,3-24.15,3.54-5.34,3.24-13.23,4.85-19.94.5-2.1,1.06-5.07,2.55-5.91,7.31-4.11,14.95-7.64,22.93-11.6Q287.36,161.85,259.15,212.09ZM92.78,45.68c4.26,9.89,8.75,19.25-1,28.48-2.91,2.76-3.67,9.21-6.67,10.23C68.69,90,51.86,97.66,34.84,83.86L44,67.28c9.4,6.09,9.27,6,16.35-1.11C69.48,57.05,76.72,44.75,92.78,45.68ZM132.26,8.6h40.41c-7.12,7.82-13.6,14.4-19.37,21.58-1.75,2.18-2.73,6.35-2,9,1.35,4.55,5.16,5,9.43,2.84a88.31,88.31,0,0,1,14.76-6.43c2.25-.68,5.78.26,7.62,1.8,1.49,1.25,2.08,4.63,1.74,6.87-1.69,11.42-13,15.52-18.74,24-.32.47-4.85-1.15-6.63-2.72-4.49-4-8.59-8.36-12.71-12.72a10,10,0,0,1-2-3.83C140.68,35.72,136.58,22.48,132.26,8.6Zm96.88,71.22c-7.5-15.81-1.09-27.53,4.15-41.8l25.1,30.58c-.23,1.16-.45,2.32-.67,3.47Z"/>
    <path d="M79,128.83c-2.6,26.81-5.11,50.46-7,74.17-.31,4,2,8.32,3.6,12.3,6.53,16.45,17.35,24.94,36.16,22.93,8.22-.88,17,2.69,25.39,4.84,2.58.67,5.05,3,6.87,5.15,3.48,4.14,6.46,8.69,9.62,13.1,6.5,9.1,6.7,9.11,14.44.08,2.89,3.87,5.54,7.77,8.56,11.35,1.63,1.94,3.88,3.34,5.85,5,1.47-2.1,3.12-4.1,4.37-6.32,1-1.8,1.54-3.87,2.76-7.05,10.41,5.28,20.35,10.49,30.47,15.31,2.42,1.15,5.45,1,8.2,1.46.09-2.55.53-5.16.19-7.65-.9-6.54-2.15-13-3.23-19.4,5.21-.82,12.52.08,14.49-2.78,2.48-3.61.6-10.28.6-16.37,11.72-2.93,15.59-11.05,13-23.46-.67-3.22,1.1-7.06,2.1-10.5,3.41-11.78.25-18.91-10.64-23.84-5.53-2.51-11-4.81-8.64-13.15.6-2.11-2.23-5.2-1.16-7.26,3-12.68,5.78-25.41,9.06-38a8.5,8.5,0,0,1,4.77-5.15c17.65-5.62,30.35-16.63,35.55-34.72,1.24-4.29-1.91-9.88-3-14.87-3.41.87-7.24,1-10.15,2.72C258.89,74,247.34,82.91,232,82.74c-5.79-.06-7.73-1.53-9.62-8.21-4.52-15.93,5.14-28,8.27-41.7,1.3-5.69.95-8.83-4.05-11.93-9.94-6.17-19.47-13-29.36-19.23-1.94-1.22-5.89-2.28-7-1.26-12.56,11.41-24.75,23.25-37,35,.33.85.65,1.69,1,2.54,2,0,4.16.55,5.91-.1A138.48,138.48,0,0,0,174,31.65c4.1-2.07,7.41-2.8,11,1.36,3.21,3.7,6.09,6.09,4,12.24-4.87,14.58-15.9,22.18-27.48,29.82-13.85-17.9-13.85-17.9-19.9-18.25.67-18.91-8.11-34.48-18.19-49.71-3.32-5-6.24-6.32-11.7-3.9-16.14,7.14-32.53,13.68-48.57,21-3,1.38-5.94,5.1-6.91,8.35-2.75,9.23-4.61,18.75-6.47,28.22-.38,2,.76,4.2,1.19,6.31,1.75-.77,3.79-1.2,5.19-2.39a43,43,0,0,0,6.87-7.15C70.89,47,81.48,41.76,95.6,40.46c2.69,8.57,5.54,17.62,7.91,25.17C99.79,70.52,96,74,94.15,78.29c-3,7-7.59,10.19-14.68,12.66-15.7,5.46-30.53,5.84-45.76-1.43C27,86.33,19.56,84.69,12.31,83c-3.4-.82-10.14-.73-10.25-.12-1,5.88-3.56,13.85-.82,17.64,9.94,13.73,20.38,28,39.46,29.78a14.17,14.17,0,0,1,3.45,1C55.19,135.24,66.22,139.26,79,128.83Zm70.79,110.36c-15.37-2.39-29.46-5.92-43.65-6.35C95.22,232.5,88.08,229.4,84,219.26c-2.19-5.42-6.83-10.88-6.52-16.09,1.43-24.06,4.16-48,6.56-72,.68-6.81-1.81-8.06-7.77-5.66-5.17,2.08-11.28,6-15.82,4.77-19.24-5.27-40-8-52-28.05-3.28-5.5-5.6-9.47-1.63-15a16.25,16.25,0,0,1,2.88.36C23.41,91.83,36.89,97,50.8,100.29c15,3.55,28.2-4.85,42-8.88.86-.25,1.64-1.86,1.9-3,3-12.62,12.51-16.32,23.6-18.43a100.11,100.11,0,0,0,18.12-5c7.7-3,12.29-1.65,16.11,6.35,4.73,9.9,12.21,10.9,20.44,3.83,2.24-1.92,3.44-5.25,5.84-6.78,3.19-2,7.25-4.42,10.63-4,7.65.91,15.22,3.11,22.6,5.48,2.17.69,4.92,3.56,5.17,5.7,1.08,9,5.32,13.87,14,12.2A168.67,168.67,0,0,0,260,79.24c6.27-2.42,11.83-6.72,17.73-10.18,7.34,14.41-15.42,39.29-37.09,39.45l11.85-4.07-.28-1.23-14,1.41,10.46-10.06c-9.4,5.72-9.37,5.59-20.42,2.61-4-1.06-8.14-1.33-12.22-2,22.44,15.13,22.44,15.13,21.74,22-9-12.41-19.83-15.62-29.38-8.64-8.07,5.9-10.51,17.65-3.57,24.53,4,4,10.85,7.08,16.28,6.87s10.79-5,16.94-8.18c-2.41,5.43-4.95,10.5-6.93,15.78-2.56,6.82-6.94,9.3-14.26,9.09-9.83-.29-19.7.85-29.56,1.27-6.14.26-10.28,5.37-7.22,9.1,7.42,9,12.41,21.82,26.27,23l2.29,8.07c2.14-3,1-6.88,2.34-8.17,6.27-6.11,13.23-11.51,19.21-16.55,4.28,2.93,8.13,6.26,12.53,8.43,8.09,4,10,8.32,8,17.28-1.31,6-.32,12.57-2,18.39-1.24,4.23-4.57,10.06-8,11-9.7,2.52-19.95,2.86-30,4.05-2.78.34-5.56.64-8.34,1l.31,2.11H233.9c.52,4.05,1,8.08,1.64,12.87l-6.3-.74c-9.81-1.24-10.57-.39-8.77,9.36,1,5.56,1.85,11.17,3.05,18.42-11-5.54-20.61-10.18-30-15.25-4.9-2.64-7.75-1.72-9.46,3.59a55.91,55.91,0,0,1-2.89,6.06c-3.64-4.84-6.56-9-9.8-13-6.18-7.48-7.48,2.58-11.65,3.81l-12.94-18.13c15.34,3.92,26.68-1.82,38.18-6.93-6.86.28-13.35,2.06-19.87,3.77-9.41,2.47-10.84,1.41-12.13-8.19-.48-3.52-1.43-7-2.16-10.48l-2.26.43C148.93,227,149.34,232.71,149.79,239.19ZM120,65.94c-2.09-6.62-4-12.54-5.81-18.47l-2.67.8c1,4.22,2.32,8.4,2.87,12.68.25,1.91-1,4-1.64,6-1.52-1.42-3.8-2.55-4.45-4.3-2.69-7.33-5.17-14.78-7.19-22.34-1.28-4.76-3.53-6.58-8.35-5.38-11.9,3-24,5.42-31.47,16.87-1,1.59-2.85,2.65-4.46,4.1-.71-11.49,4.94-17.61,14.79-21,4.77-1.63,9.22-4.27,13.74-6.6,2.79-1.44,5.45-3.15,8.16-4.73l-1.31-2.35-30,14.15-1.44-1.75c1.57-1.62,2.86-3.9,4.77-4.75Q88.87,18.54,112.45,8.74c1.67-.69,5.18-.26,6,.94,10.58,15.11,20,30.77,17.61,51.05Zm72.29-5.49-2.6-.92c1.7-5.57,3.93-11.06,4.9-16.76.5-3-.22-7.25-2.11-9.31-5.67-6.17-11.31-14.47-22-7.44l22.2-21.26,34.12,22.81c-3.27,9.15-6.35,17.61-9.33,26.1-5,14.14-5.7,14.45-19.57,7.41,3.15-9.65,6.44-19.32,9.41-29.08.61-2,1-5.47-.11-6.47-4.63-4.19-9.87-7.69-14.88-11.45l-1.9,2.58,14.6,11.65C200.22,39,199.11,51,192.33,60.45Zm4.58,117.2-3,.64c-3-3.33-6.07-6.56-8.9-10-3.13-3.81-1.74-6.25,2.81-6.53,12.19-.73,24.4-1.39,36.61-1.49,1.84,0,5.49,4.26,5.28,4.6-2.62,4.16-5.82,8-8.86,11.86l-2.66-1.94c1.14-2.36,2.29-4.72,3.91-8.06-9.75,2.58-9.68,7.2-4.45,12.95-5.42,8.2-12.14,6-19.09,4.83,3.14-14.73,3.14-14.73-4.22-15.86C195.17,171.49,196,174.57,196.91,177.65Zm22.46-68.76c8.15,0,14.63,6,14.78,13.72s-6.07,14-14.23,14.26c-8.64.24-15.29-6-15.17-14.14C204.86,114.88,211.13,108.94,219.37,108.89Z" style="fill: #fff"/>
    <path d="M73.57,137.24c-18.2,7.46-32.85-6.07-49.37-7.27-11.39,80.42,63.13,161.78,147.72,141.8-2.22-.37-5-1.77-6.56-.93-5.47,2.85-9.09,1.12-12.17-3.51a23.37,23.37,0,0,1-2-3c-8.54-18.85-25.38-23.05-43-22.4-15.65.57-25.45-4.24-32.7-18.63-5.19-10.32-8.12-19-5.81-31.17C73,174.31,72.43,155.7,73.57,137.24Z" style="fill: #fff"/>
    <path d="M259.15,212.09q28.31-50.21,14.23-106.37c-8,4-15.62,7.49-22.93,11.6-1.49.84-2,3.81-2.55,5.91-1.61,6.71-1.31,14.6-4.85,19.94-5.36,8.1-3.78,16-3,24.15.21,2.16,3.43,4.65,5.82,5.86,14.16,7.12,17.57,14.91,12.9,30.57-.75,2.52-1.36,5.09-2,7.64Z" style="fill: #fff"/>
    <path d="M92.78,45.68c-16.06-.93-23.3,11.37-32.47,20.49-7.08,7.06-7,7.2-16.35,1.11L34.84,83.86c17,13.8,33.85,6.13,50.28.53,3-1,3.76-7.47,6.67-10.23C101.53,64.93,97,55.57,92.78,45.68Z" style="fill: #fff"/>
    <path d="M132.26,8.6c4.32,13.88,8.42,27.12,12.59,40.33a10,10,0,0,0,2,3.83c4.12,4.36,8.22,8.77,12.71,12.72,1.78,1.57,6.31,3.19,6.63,2.72,5.73-8.45,17-12.55,18.74-24,.34-2.24-.25-5.62-1.74-6.87-1.84-1.54-5.37-2.48-7.62-1.8A88.31,88.31,0,0,0,160.77,42c-4.27,2.17-8.08,1.71-9.43-2.84-.77-2.62.21-6.79,2-9C159.07,23,165.55,16.42,172.67,8.6Z" style="fill: #fff"/>
    <path d="M229.14,79.82l28.58-7.75c.22-1.15.44-2.31.67-3.47L233.29,38C228.05,52.29,221.64,64,229.14,79.82Z" style="fill: #fff"/>
    <path d="M149.79,239.19c-.45-6.48-.86-12.22-1.26-17.95l2.26-.43c.73,3.5,1.68,7,2.16,10.48,1.29,9.6,2.72,10.66,12.13,8.19,6.52-1.71,13-3.49,19.87-3.77-11.5,5.11-22.84,10.85-38.18,6.93l12.94,18.13c4.17-1.23,5.47-11.29,11.65-3.81,3.24,3.92,6.16,8.11,9.8,13a55.91,55.91,0,0,0,2.89-6.06c1.71-5.31,4.56-6.23,9.46-3.59,9.4,5.07,19,9.71,30,15.25-1.2-7.25-2-12.86-3.05-18.42-1.8-9.75-1-10.6,8.77-9.36l6.3.74c-.61-4.79-1.12-8.82-1.64-12.87H202.67l-.31-2.11c2.78-.32,5.56-.62,8.34-1,10-1.19,20.29-1.53,30-4.05,3.47-.9,6.8-6.73,8-11,1.7-5.82.71-12.4,2-18.39,2-9,.07-13.3-8-17.28-4.4-2.17-8.25-5.5-12.53-8.43-6,5-12.94,10.44-19.21,16.55-1.34,1.29-.2,5.18-2.34,8.17l-2.29-8.07c-13.86-1.18-18.85-14-26.27-23-3.06-3.73,1.08-8.84,7.22-9.1,9.86-.42,19.73-1.56,29.56-1.27,7.32.21,11.7-2.27,14.26-9.09,2-5.28,4.52-10.35,6.93-15.78-6.15,3.18-11.46,8-16.94,8.18s-12.29-2.9-16.28-6.87c-6.94-6.88-4.5-18.63,3.57-24.53,9.55-7,20.42-3.77,29.38,8.64.7-6.92.7-6.92-21.74-22,4.08.64,8.25.91,12.22,2,11,3,11,3.11,20.42-2.61l-10.46,10.06,14-1.41.28,1.23-11.85,4.07c21.67-.16,44.43-25,37.09-39.45-5.9,3.46-11.46,7.76-17.73,10.18a168.67,168.67,0,0,1-28.75,8.5c-8.71,1.67-13-3.16-14-12.2-.25-2.14-3-5-5.17-5.7-7.38-2.37-14.95-4.57-22.6-5.48-3.38-.39-7.44,2-10.63,4-2.4,1.53-3.6,4.86-5.84,6.78-8.23,7.07-15.71,6.07-20.44-3.83-3.82-8-8.41-9.4-16.11-6.35a100.11,100.11,0,0,1-18.12,5c-11.09,2.11-20.63,5.81-23.6,18.43-.26,1.11-1,2.72-1.9,3-13.8,4-27,12.43-42,8.88C36.89,97,23.41,91.83,9.73,87.53a16.25,16.25,0,0,0-2.88-.36c-4,5.55-1.65,9.52,1.63,15,12,20,32.72,22.78,52,28.05,4.54,1.24,10.65-2.69,15.82-4.77,6-2.4,8.45-1.15,7.77,5.66-2.4,24-5.13,48-6.56,72-.31,5.21,4.33,10.67,6.52,16.09,4.09,10.14,11.23,13.24,22.15,13.58C120.33,233.27,134.42,236.8,149.79,239.19ZM115,149.4a18.93,18.93,0,0,1-18.59-19.26,19.31,19.31,0,0,1,19-19c10.58,0,19.57,9.38,19.13,19.88A19.12,19.12,0,0,1,115,149.4ZM169.81,205l73.8-6.53.15,2.22C219.29,204.63,194.91,209.74,169.81,205Zm-21.39-14.23-2.73,3.14c-9.8-14.51-24-20.81-39.7-25.71-4.66-1.46-7.35-9.35-10.93-14.3l3-3.29c4.72,17.13,19.95,16.43,31.34,22.51C136.75,177.07,142.15,184.77,148.42,190.79Zm-9.48-79.14c-13.35-8.79-27.18-8-41.32-2.56C110.83,96.88,127.73,97.69,138.94,111.65Zm52.52,34.5c-13.36-2.14-17.28-8-15.74-19.37.71-5.25-.12-10.73-.42-16.1-.14-2.7-.65-5.37-1-8.06l2.59-.51c1.13,5,3.55,10.21,3.13,15.12C179,128.86,176.51,140.42,191.46,146.15ZM78.08,119.81c-2-9.63-7.18-12.66-16.12-9.31-16.93,6.34-28.2-5.92-41.29-12.4,15.45,9,31.15,14.33,49.65,9.6C77.82,105.77,77.83,114,78.08,119.81Zm48.58,35.95L145,136.1C143.77,149.68,138.86,154.82,126.66,155.76Z"/>
    <path d="M120,65.94l16-5.21c2.35-20.28-7-35.94-17.61-51-.85-1.2-4.36-1.63-6-.94q-23.6,9.77-46.92,20.18c-1.91.85-3.2,3.13-4.77,4.75l1.44,1.75L92.25,21.27l1.31,2.35c-2.71,1.58-5.37,3.29-8.16,4.73-4.52,2.33-9,5-13.74,6.6-9.85,3.38-15.5,9.5-14.79,21,1.61-1.45,3.43-2.51,4.46-4.1C68.81,40.39,80.9,37.93,92.8,35c4.82-1.2,7.07.62,8.35,5.38,2,7.56,4.5,15,7.19,22.34.65,1.75,2.93,2.88,4.45,4.3.6-2,1.89-4.13,1.64-6-.55-4.28-1.86-8.46-2.87-12.68l2.67-.8C116.09,53.4,118,59.32,120,65.94Z"/>
    <path d="M192.33,60.45c6.78-9.5,7.89-21.48,12.74-32.14l-14.6-11.65,1.9-2.58c5,3.76,10.25,7.26,14.88,11.45,1.1,1,.72,4.44.11,6.47-3,9.76-6.26,19.43-9.41,29.08,13.87,7,14.61,6.73,19.57-7.41,3-8.49,6.06-17,9.33-26.1L192.73,4.76,170.53,26c10.68-7,16.32,1.27,22,7.44,1.89,2.06,2.61,6.35,2.11,9.31-1,5.7-3.2,11.19-4.9,16.76Z"/>
    <path d="M196.91,177.65c-.87-3.08-1.74-6.16-2.54-9,7.36,1.13,7.36,1.13,4.22,15.86,6.95,1.17,13.67,3.37,19.09-4.83-5.23-5.75-5.3-10.37,4.45-12.95-1.62,3.34-2.77,5.7-3.91,8.06l2.66,1.94c3-3.9,6.24-7.7,8.86-11.86.21-.34-3.44-4.62-5.28-4.6-12.21.1-24.42.76-36.61,1.49-4.55.28-5.94,2.72-2.81,6.53,2.83,3.46,5.92,6.69,8.9,10Z"/>
    <path d="M219.37,108.89c-8.24,0-14.51,6-14.62,13.84-.12,8.19,6.53,14.38,15.17,14.14,8.16-.22,14.37-6.45,14.23-14.26S227.52,108.85,219.37,108.89Zm0,20.08-.69-1.49c-1.17.07-2.47.49-3.5.13a62.85,62.85,0,0,1-6.38-2.9c2-1.31,4-2.78,6.07-3.88a5.88,5.88,0,0,1,3.48-.38c4.47.74,8.91,1.66,13.36,2.51Z"/>
    <path d="M115,149.4A19.12,19.12,0,0,0,134.52,131c.44-10.5-8.55-19.85-19.13-19.88a19.31,19.31,0,0,0-19,19A18.93,18.93,0,0,0,115,149.4Zm-14.77-18.68A15.37,15.37,0,0,1,115,114.79a15.81,15.81,0,0,1,15.81,15.13,15.6,15.6,0,0,1-15,15.79A15,15,0,0,1,100.23,130.72Z" style="fill: #fff"/>
    <path d="M169.81,205c25.1,4.72,49.48-.39,73.95-4.31l-.15-2.22Z" style="fill: #fff"/>
    <path d="M148.42,190.79c-6.27-6-11.67-13.72-19-17.65C118,167.06,102.76,167.76,98,150.63l-3,3.29c3.58,5,6.27,12.84,10.93,14.3,15.65,4.9,29.9,11.2,39.7,25.71Z" style="fill: #fff"/>
    <path d="M138.94,111.65c-11.21-14-28.11-14.77-41.32-2.56C111.76,103.62,125.59,102.86,138.94,111.65Z" style="fill: #fff"/>
    <path d="M191.46,146.15c-15-5.73-12.46-17.29-11.44-28.92.42-4.91-2-10.07-3.13-15.12l-2.59.51c.35,2.69.86,5.36,1,8.06.3,5.37,1.13,10.85.42,16.1C174.18,138.2,178.1,144,191.46,146.15Z" style="fill: #fff"/>
    <path d="M78.08,119.81c-.25-5.82-.26-14-7.76-12.11-18.5,4.73-34.2-.59-49.65-9.6C33.76,104.58,45,116.84,62,110.5,70.9,107.15,76.07,110.18,78.08,119.81Z" style="fill: #fff"/>
    <path d="M126.66,155.76c12.2-.94,17.11-6.08,18.31-19.66Z" style="fill: #fff"/>
    <path d="M100.23,130.72a15,15,0,0,0,15.59,15,15.6,15.6,0,0,0,15-15.79A15.81,15.81,0,0,0,115,114.79,15.37,15.37,0,0,0,100.23,130.72Zm14.48-3.83v-.09c2.09,0,4.3-.44,6.22.13s3.53,2.15,5.27,3.29c-1.83,1.08-3.56,2.79-5.51,3.11a38.67,38.67,0,0,1-10.69.25c-2-.23-3.73-1.91-5.59-2.93a39.26,39.26,0,0,1,5.87-3.66C111.55,126.45,113.22,126.89,114.71,126.89Z"/>
    <path d="M114.71,126.89c-1.49,0-3.16-.44-4.43.1a39.26,39.26,0,0,0-5.87,3.66c1.86,1,3.64,2.7,5.59,2.93a38.67,38.67,0,0,0,10.69-.25c2-.32,3.68-2,5.51-3.11-1.74-1.14-3.36-2.72-5.27-3.29s-4.13-.13-6.22-.13Z" style="fill: #fff"/>
    <path d="M220.24,119.89c-1.49,0-3.16-.44-4.43.1a39.77,39.77,0,0,0-5.87,3.66c1.86,1,3.64,2.7,5.6,2.93a38.68,38.68,0,0,0,10.69-.25c2-.32,3.68-2,5.5-3.11-1.74-1.14-3.35-2.72-5.26-3.29s-4.14-.13-6.23-.13Z" style="fill: #fff"/>
  </g>
</svg>
