<svg id="Layer_1" data-name="Layer 1" xmlns="http://www.w3.org/2000/svg" width="328.58" height="305" viewBox="0 0 328.58 305">
  <title>Black_Background</title>
  <g>
    <path d="M0,0V305H328.58V0ZM93.06,134c-12.77,10.43-23.8,6.41-34.85,2.38a14.63,14.63,0,0,0-3.45-.95c-19.08-1.82-29.52-16.05-39.45-29.77-2.75-3.79-.24-11.77.81-17.65.11-.61,6.85-.69,10.25.12,7.25,1.73,14.72,3.37,21.4,6.56,15.24,7.28,30.06,6.9,45.76,1.43,7.1-2.47,11.72-5.67,14.68-12.66,1.84-4.32,5.64-7.77,9.36-12.66-2.37-7.55-5.21-16.6-7.91-25.17C95.55,46.9,85,52.15,77.14,62.74a43.84,43.84,0,0,1-6.88,7.14c-1.4,1.19-3.43,1.62-5.18,2.39-.44-2.11-1.58-4.36-1.19-6.3,1.86-9.48,3.72-19,6.47-28.23,1-3.25,3.91-7,6.91-8.35,16-7.36,32.43-13.9,48.56-21,5.46-2.41,8.39-1.11,11.71,3.91C147.62,27.49,156.4,43.05,155.73,62c6.05.34,6.05.34,19.9,18.25,11.57-7.65,22.6-15.25,27.48-29.83,2-6.15-.82-8.54-4-12.24-3.61-4.16-6.92-3.43-11-1.36a135.46,135.46,0,0,1-14,6.17c-1.74.65-3.92.1-5.9.1-.33-.84-.65-1.69-1-2.54,12.28-11.72,24.47-23.56,37-35,1.12-1,5.07,0,7,1.27,9.9,6.23,19.43,13.05,29.36,19.22,5,3.1,5.35,6.25,4.05,11.93-3.13,13.71-12.79,25.77-8.27,41.7,1.89,6.68,3.83,8.15,9.62,8.21,15.37.17,26.93-8.74,39.26-16,2.91-1.73,6.74-1.86,10.15-2.73,1.13,5,4.28,10.58,3.05,14.88-5.2,18.08-17.91,29.09-35.56,34.71a8.5,8.5,0,0,0-4.77,5.15c-3.27,12.61-6.09,25.33-9.05,38-1.07,2.06,1.75,5.14,1.16,7.25-2.35,8.34,3.1,10.65,8.63,13.15,10.9,4.93,14.05,12.06,10.64,23.84-1,3.45-2.76,7.29-2.09,10.5,2.6,12.41-1.28,20.53-13,23.47,0,6.08,1.88,12.76-.6,16.36-2,2.86-9.28,2-14.49,2.78,1.09,6.37,2.33,12.87,3.23,19.41.35,2.49-.1,5.09-.19,7.64-2.75-.45-5.78-.31-8.2-1.46-10.12-4.82-20.06-10-30.47-15.3-1.21,3.17-1.75,5.24-2.76,7a75.57,75.57,0,0,1-4.37,6.32c-2-1.64-4.22-3-5.85-5-3-3.58-5.67-7.47-8.55-11.35-7.74,9-7.95,9-14.45-.07-3.15-4.41-6.14-9-9.61-13.11-1.82-2.17-4.3-4.48-6.88-5.14-8.38-2.16-17.16-5.73-25.39-4.85-18.8,2-29.63-6.48-36.15-22.92-1.59-4-3.92-8.32-3.61-12.31C88,184.44,90.47,160.78,93.06,134Zm-5.42,8.41c-1.14,18.47-.59,37.08-4,54.92-2.32,12.22.61,20.85,5.81,31.17,7.24,14.39,17,19.21,32.69,18.63,17.66-.65,34.5,3.55,43,22.4a22.46,22.46,0,0,0,2,3c3.08,4.64,6.7,6.37,12.17,3.51,1.6-.84,4.34.56,6.56.93-84.6,20-159.11-61.38-147.72-141.79C54.78,136.31,69.43,149.84,87.64,142.38Zm185.58,74.85-2.43-.7c.67-2.55,1.28-5.12,2-7.64,4.67-15.65,1.26-23.45-12.89-30.57-2.4-1.2-5.62-3.7-5.82-5.85-.78-8.11-2.35-16.05,3-24.15,3.53-5.34,3.23-13.24,4.84-19.95.5-2.1,1.06-5.07,2.55-5.91,7.32-4.11,14.95-7.64,22.93-11.6Q301.42,167,273.22,217.23ZM106.84,50.83c4.26,9.89,8.76,19.24-1,28.48-2.9,2.75-3.67,9.21-6.66,10.23C82.75,95.14,65.92,102.81,48.9,89L58,72.42c9.4,6.09,9.26,6,16.35-1.1C83.54,62.19,90.78,49.89,106.84,50.83Zm39.48-37.09h40.41c-7.12,7.82-13.6,14.41-19.36,21.58-1.76,2.19-2.74,6.35-2,9,1.34,4.55,5.16,5,9.42,2.84a90,90,0,0,1,14.76-6.43,9.51,9.51,0,0,1,7.63,1.81c1.48,1.24,2.07,4.63,1.74,6.86-1.7,11.43-13,15.53-18.75,24-.31.46-4.85-1.16-6.63-2.73-4.49-3.94-8.59-8.36-12.71-12.72a10,10,0,0,1-2-3.82C154.75,40.86,150.64,27.62,146.32,13.74ZM243.2,85c-7.49-15.81-1.09-27.54,4.15-41.81l25.1,30.59-.66,3.47Z"/>
    <path d="M93.06,134c-2.59,26.81-5.11,50.47-7,74.17-.31,4,2,8.32,3.61,12.31,6.52,16.44,17.35,24.93,36.15,22.92,8.23-.88,17,2.69,25.39,4.85,2.58.66,5.06,3,6.88,5.14,3.47,4.14,6.46,8.7,9.61,13.11,6.5,9.09,6.71,9.11,14.45.07,2.88,3.88,5.53,7.77,8.55,11.35,1.63,1.94,3.88,3.34,5.85,5a75.57,75.57,0,0,0,4.37-6.32c1-1.8,1.55-3.87,2.76-7,10.41,5.27,20.35,10.48,30.47,15.3,2.42,1.15,5.45,1,8.2,1.46.09-2.55.54-5.15.19-7.64-.9-6.54-2.14-13-3.23-19.41,5.21-.81,12.52.08,14.49-2.78,2.48-3.6.6-10.28.6-16.36,11.72-2.94,15.6-11.06,13-23.47-.67-3.21,1.09-7.05,2.09-10.5,3.41-11.78.26-18.91-10.64-23.84-5.53-2.5-11-4.81-8.63-13.15.59-2.11-2.23-5.19-1.16-7.25,3-12.69,5.78-25.41,9.05-38a8.5,8.5,0,0,1,4.77-5.15c17.65-5.62,30.36-16.63,35.56-34.71,1.23-4.3-1.92-9.88-3.05-14.88-3.41.87-7.24,1-10.15,2.73C273,79.14,261.4,88.05,246,87.88c-5.79-.06-7.73-1.53-9.62-8.21-4.52-15.93,5.14-28,8.27-41.7,1.3-5.68.95-8.83-4.05-11.93-9.93-6.17-19.46-13-29.36-19.22-1.93-1.23-5.88-2.28-7-1.27-12.56,11.41-24.75,23.25-37,35,.32.85.64,1.7,1,2.54,2,0,4.16.55,5.9-.1a135.46,135.46,0,0,0,14-6.17c4.09-2.07,7.4-2.8,11,1.36,3.21,3.7,6.08,6.09,4,12.24C198.23,65,187.2,72.57,175.63,80.22,161.78,62.31,161.78,62.31,155.73,62c.67-18.92-8.11-34.48-18.19-49.71-3.32-5-6.25-6.32-11.71-3.91C109.7,15.49,93.3,22,77.27,29.39c-3,1.38-6,5.1-6.91,8.35C67.61,47,65.75,56.49,63.89,66c-.39,1.94.75,4.19,1.19,6.3,1.75-.77,3.78-1.2,5.18-2.39a43.84,43.84,0,0,0,6.88-7.14C85,52.15,95.55,46.9,109.66,45.6c2.7,8.57,5.54,17.62,7.91,25.17-3.72,4.89-7.52,8.34-9.36,12.66-3,7-7.58,10.19-14.68,12.66-15.7,5.47-30.52,5.85-45.76-1.43-6.68-3.19-14.15-4.83-21.4-6.56-3.4-.81-10.14-.73-10.25-.12-1.05,5.88-3.56,13.86-.81,17.65,9.93,13.72,20.37,28,39.45,29.77a14.63,14.63,0,0,1,3.45.95C69.26,140.38,80.29,144.4,93.06,134Zm70.8,110.37c-15.38-2.4-29.47-5.93-43.65-6.36-10.93-.34-18.07-3.43-22.16-13.58-2.19-5.41-6.83-10.88-6.52-16.08,1.44-24.07,4.17-48,6.56-72,.68-6.81-1.81-8.06-7.76-5.66-5.18,2.09-11.29,6-15.82,4.77-19.24-5.26-40-8-52-28-3.27-5.49-5.6-9.46-1.63-15a17.24,17.24,0,0,1,2.88.36C37.47,97,51,102.14,64.87,105.44c15,3.54,28.19-4.86,42-8.89.86-.25,1.64-1.86,1.9-3,3-12.61,12.51-16.32,23.61-18.43a99.17,99.17,0,0,0,18.11-5c7.7-3,12.29-1.65,16.11,6.34,4.74,9.9,12.21,10.9,20.45,3.84,2.24-1.93,3.44-5.26,5.83-6.79,3.19-2,7.25-4.42,10.63-4,7.65.9,15.22,3.1,22.6,5.47,2.18.7,4.92,3.56,5.18,5.7,1.07,9,5.31,13.87,14,12.2a168.4,168.4,0,0,0,28.75-8.5c6.27-2.42,11.84-6.71,17.73-10.18,7.35,14.41-15.42,39.29-37.08,39.46l11.84-4.08-.27-1.23-14,1.41L262.75,99.7c-9.4,5.72-9.36,5.59-20.42,2.62-4-1.07-8.14-1.34-12.22-2,22.45,15.13,22.45,15.13,21.74,22C242.9,110,232,106.78,222.48,113.75c-8.08,5.9-10.51,17.65-3.58,24.54,4,4,10.86,7.07,16.28,6.86s10.8-5,16.95-8.18c-2.41,5.44-4.95,10.5-6.93,15.78-2.56,6.82-6.94,9.3-14.26,9.09-9.84-.28-19.7.85-29.56,1.27-6.14.26-10.29,5.37-7.22,9.1,7.41,9,12.4,21.83,26.27,23,.79,2.79,1.53,5.43,2.28,8.07,2.15-3,1-6.87,2.34-8.17,6.28-6.11,13.23-11.51,19.21-16.55,4.29,2.94,8.13,6.27,12.53,8.44,8.09,4,10,8.31,8,17.27-1.31,6-.32,12.57-2,18.39-1.23,4.23-4.57,10.06-8,11-9.69,2.53-19.95,2.86-30,4.06-2.78.33-5.57.63-8.35.95l.32,2.11H248c.52,4,1,8.08,1.65,12.87-2.89-.34-4.6-.52-6.3-.74-9.82-1.24-10.57-.39-8.78,9.36,1,5.57,1.86,11.17,3.05,18.42-11-5.54-20.6-10.18-30-15.24-4.91-2.65-7.76-1.73-9.47,3.58a53.26,53.26,0,0,1-2.89,6.06c-3.63-4.83-6.55-9-9.79-12.95-6.18-7.48-7.48,2.58-11.65,3.81l-12.94-18.13c15.33,3.92,26.68-1.82,38.17-6.92-6.85.27-13.35,2-19.86,3.76-9.41,2.47-10.84,1.42-12.14-8.18-.48-3.53-1.42-7-2.15-10.48l-2.27.42C163,232.12,163.4,237.85,163.86,244.34ZM134.1,71.09c-2.08-6.63-3.95-12.55-5.81-18.47l-2.66.79c1,4.22,2.32,8.4,2.87,12.68.24,1.91-1,4-1.64,6-1.53-1.41-3.81-2.54-4.45-4.29-2.7-7.34-5.17-14.79-7.2-22.34-1.28-4.77-3.52-6.58-8.34-5.38-11.9,3-24,5.41-31.47,16.87-1,1.58-2.85,2.64-4.47,4.09-.7-11.48,4.94-17.61,14.8-21,4.77-1.64,9.21-4.28,13.73-6.61,2.79-1.44,5.45-3.14,8.16-4.73l-1.31-2.35-30,14.15-1.45-1.75c1.58-1.62,2.86-3.9,4.77-4.74q23.34-10.39,46.92-20.19c1.67-.69,5.19-.26,6,.95,10.58,15.11,20,30.76,17.62,51Zm72.29-5.5-2.6-.91c1.71-5.58,3.93-11.06,4.9-16.77.5-3-.21-7.25-2.11-9.31-5.67-6.17-11.3-14.46-22-7.44L206.8,9.9l34.12,22.81c-3.28,9.15-6.36,17.61-9.34,26.11-5,14.13-5.69,14.44-19.57,7.41,3.16-9.66,6.44-19.32,9.41-29.09.62-2,1-5.47-.11-6.47-4.63-4.18-9.86-7.69-14.88-11.44l-1.9,2.57,14.61,11.66C214.28,44.11,213.17,56.09,206.39,65.59ZM211,182.79l-3,.65c-3-3.34-6.07-6.57-8.9-10-3.12-3.82-1.73-6.26,2.81-6.53,12.2-.73,24.41-1.4,36.62-1.5,1.83,0,5.49,4.26,5.27,4.6a142.76,142.76,0,0,1-8.86,11.86l-2.66-1.94,3.91-8c-9.75,2.57-9.67,7.19-4.45,12.95-5.41,8.19-12.14,6-19.09,4.82,3.14-14.73,3.14-14.73-4.22-15.86ZM233.43,114c8.15-.05,14.64,6,14.78,13.72s-6.07,14-14.22,14.26c-8.65.24-15.29-6-15.18-14.15C218.92,120,225.2,114.09,233.43,114Z" style="fill: #fff"/>
    <path d="M87.64,142.38c-18.21,7.46-32.86-6.07-49.37-7.26C26.88,215.53,101.39,296.89,186,276.91c-2.22-.37-5-1.77-6.56-.93-5.47,2.86-9.09,1.13-12.17-3.51a22.46,22.46,0,0,1-2-3c-8.54-18.85-25.38-23.05-43-22.4-15.65.58-25.45-4.24-32.69-18.63-5.2-10.32-8.13-18.95-5.81-31.17C87.05,179.46,86.5,160.85,87.64,142.38Z" style="fill: #fff"/>
    <path d="M273.22,217.23Q301.51,167,287.44,110.86c-8,4-15.61,7.49-22.93,11.6-1.49.84-2.05,3.81-2.55,5.91-1.61,6.71-1.31,14.61-4.84,19.95-5.36,8.1-3.79,16-3,24.15.2,2.15,3.42,4.65,5.82,5.85,14.15,7.12,17.56,14.92,12.89,30.57-.75,2.52-1.36,5.09-2,7.64Z" style="fill: #fff"/>
    <path d="M106.84,50.83c-16.06-.94-23.3,11.36-32.46,20.49-7.09,7.05-6.95,7.19-16.35,1.1L48.9,89c17,13.8,33.85,6.13,50.29.53,3-1,3.76-7.48,6.66-10.23C115.6,70.07,111.1,60.72,106.84,50.83Z" style="fill: #fff"/>
    <path d="M146.32,13.74c4.32,13.88,8.43,27.12,12.6,40.34a10,10,0,0,0,2,3.82c4.12,4.36,8.22,8.78,12.71,12.72,1.78,1.57,6.32,3.19,6.63,2.73,5.74-8.45,17-12.55,18.75-24,.33-2.23-.26-5.62-1.74-6.86a9.51,9.51,0,0,0-7.63-1.81,90,90,0,0,0-14.76,6.43c-4.26,2.17-8.08,1.71-9.42-2.84-.78-2.62.2-6.78,2-9,5.76-7.17,12.24-13.76,19.36-21.58Z" style="fill: #fff"/>
    <path d="M243.2,85l28.59-7.75.66-3.47-25.1-30.59C242.11,57.43,235.71,69.16,243.2,85Z" style="fill: #fff"/>
    <path d="M163.86,244.34c-.46-6.49-.87-12.22-1.27-18l2.27-.42c.73,3.49,1.67,6.95,2.15,10.48,1.3,9.6,2.73,10.65,12.14,8.18,6.51-1.71,13-3.49,19.86-3.76-11.49,5.1-22.84,10.84-38.17,6.92l12.94,18.13c4.17-1.23,5.47-11.29,11.65-3.81,3.24,3.93,6.16,8.12,9.79,12.95a53.26,53.26,0,0,0,2.89-6.06c1.71-5.31,4.56-6.23,9.47-3.58,9.4,5.06,19,9.7,30,15.24-1.19-7.25-2-12.85-3.05-18.42-1.79-9.75-1-10.6,8.78-9.36,1.7.22,3.41.4,6.3.74-.62-4.79-1.13-8.82-1.65-12.87H216.74l-.32-2.11c2.78-.32,5.57-.62,8.35-.95,10-1.2,20.29-1.53,30-4.06,3.47-.9,6.81-6.73,8-11,1.7-5.82.71-12.39,2-18.39,2-9,.07-13.29-8-17.27-4.4-2.17-8.24-5.5-12.53-8.44-6,5-12.93,10.44-19.21,16.55-1.33,1.3-.19,5.19-2.34,8.17-.75-2.64-1.49-5.28-2.28-8.07-13.87-1.17-18.86-14-26.27-23-3.07-3.73,1.08-8.84,7.22-9.1,9.86-.42,19.72-1.55,29.56-1.27,7.32.21,11.7-2.27,14.26-9.09,2-5.28,4.52-10.34,6.93-15.78-6.15,3.18-11.46,8-16.95,8.18s-12.28-2.9-16.28-6.86c-6.93-6.89-4.5-18.64,3.58-24.54,9.54-7,20.42-3.77,29.37,8.64.71-6.92.71-6.92-21.74-22,4.08.64,8.26.91,12.22,2,11.06,3,11,3.1,20.42-2.62L252.3,109.76l14-1.41.27,1.23-11.84,4.08c21.66-.17,44.43-25,37.08-39.46-5.89,3.47-11.46,7.76-17.73,10.18a168.4,168.4,0,0,1-28.75,8.5c-8.71,1.67-13-3.16-14-12.2-.26-2.14-3-5-5.18-5.7-7.38-2.37-14.95-4.57-22.6-5.47-3.38-.4-7.44,2-10.63,4-2.39,1.53-3.59,4.86-5.83,6.79-8.24,7.06-15.71,6.06-20.45-3.84-3.82-8-8.41-9.39-16.11-6.34a99.17,99.17,0,0,1-18.11,5c-11.1,2.11-20.64,5.82-23.61,18.43-.26,1.11-1,2.72-1.9,3-13.8,4-27,12.43-42,8.89C51,102.14,37.47,97,23.79,92.67a17.24,17.24,0,0,0-2.88-.36c-4,5.56-1.64,9.53,1.63,15,12,20,32.73,22.79,52,28.05,4.53,1.24,10.64-2.68,15.82-4.77,6-2.4,8.44-1.15,7.76,5.66-2.39,24-5.12,48-6.56,72-.31,5.2,4.33,10.67,6.52,16.08,4.09,10.15,11.23,13.24,22.16,13.58C134.39,238.41,148.48,241.94,163.86,244.34Zm-34.8-89.8a18.93,18.93,0,0,1-18.59-19.25c.1-10.39,8.75-19.07,19-19,10.58,0,19.58,9.37,19.14,19.88A19.12,19.12,0,0,1,129.06,154.54Zm54.81,55.62,73.8-6.53.16,2.23C233.35,209.77,209,214.88,183.87,210.16Zm-21.38-14.23-2.74,3.14c-9.8-14.5-24-20.81-39.7-25.71-4.66-1.46-7.34-9.35-10.93-14.3,1-1.09,2-2.19,3-3.29,4.72,17.13,20,16.43,31.34,22.51C150.81,182.21,156.21,189.92,162.49,195.93ZM153,116.8c-13.35-8.8-27.18-8-41.32-2.56C124.9,102,141.8,102.84,153,116.8Zm52.53,34.49c-13.36-2.13-17.29-7.94-15.74-19.36.71-5.26-.13-10.74-.42-16.1-.15-2.7-.66-5.38-1-8.07l2.59-.5c1.13,5,3.56,10.2,3.13,15.11C193.06,134,190.57,145.57,205.53,151.29ZM92.15,125c-2-9.63-7.19-12.65-16.13-9.3-16.92,6.33-28.2-5.92-41.29-12.41,15.46,9,31.15,14.34,49.65,9.6C91.88,110.92,91.89,119.14,92.15,125Zm48.58,36L159,141.24C157.84,154.83,152.93,160,140.73,160.9Z"/>
    <path d="M134.1,71.09l16.06-5.22c2.34-20.28-7-35.93-17.62-51-.84-1.21-4.36-1.64-6-.95q-23.6,9.77-46.92,20.19c-1.91.84-3.19,3.12-4.77,4.74l1.45,1.75,30-14.15,1.31,2.35c-2.71,1.59-5.37,3.29-8.16,4.73-4.52,2.33-9,5-13.73,6.61-9.86,3.37-15.5,9.5-14.8,21,1.62-1.45,3.43-2.51,4.47-4.09C82.88,45.53,95,43.08,106.87,40.12c4.82-1.2,7.06.61,8.34,5.38,2,7.55,4.5,15,7.2,22.34.64,1.75,2.92,2.88,4.45,4.29.59-2,1.88-4.13,1.64-6-.55-4.28-1.87-8.46-2.87-12.68l2.66-.79C130.15,58.54,132,64.46,134.1,71.09Z"/>
    <path d="M206.39,65.59c6.78-9.5,7.89-21.48,12.75-32.13L204.53,21.8l1.9-2.57c5,3.75,10.25,7.26,14.88,11.44,1.1,1,.73,4.44.11,6.47-3,9.77-6.25,19.43-9.41,29.09,13.88,7,14.61,6.72,19.57-7.41,3-8.5,6.06-17,9.34-26.11L206.8,9.9,184.59,31.16c10.69-7,16.32,1.27,22,7.44,1.9,2.06,2.61,6.35,2.11,9.31-1,5.71-3.19,11.19-4.9,16.77Z"/>
    <path d="M211,182.79l-2.55-9c7.36,1.13,7.36,1.13,4.22,15.86,6.95,1.17,13.68,3.37,19.09-4.82-5.22-5.76-5.3-10.38,4.45-12.95l-3.91,8,2.66,1.94A142.76,142.76,0,0,0,243.8,170c.22-.34-3.44-4.62-5.27-4.6-12.21.1-24.42.77-36.62,1.5-4.54.27-5.93,2.71-2.81,6.53,2.83,3.45,5.92,6.68,8.9,10Z"/>
    <path d="M129.06,154.54a19.12,19.12,0,0,0,19.53-18.41c.44-10.51-8.56-19.86-19.14-19.88-10.23,0-18.88,8.65-19,19A18.93,18.93,0,0,0,129.06,154.54Zm-14.77-18.68a15.37,15.37,0,0,1,14.81-15.92,15.8,15.8,0,0,1,15.81,15.12,15.6,15.6,0,0,1-15,15.79A15,15,0,0,1,114.29,135.86Z" style="fill: #fff"/>
    <path d="M183.87,210.16c25.11,4.72,49.48-.39,74-4.3l-.16-2.23Z" style="fill: #fff"/>
    <path d="M162.49,195.93c-6.28-6-11.68-13.72-19-17.65-11.39-6.08-26.62-5.38-31.34-22.51-1,1.1-2,2.2-3,3.29,3.59,4.95,6.27,12.84,10.93,14.3,15.66,4.9,29.9,11.21,39.7,25.71Z" style="fill: #fff"/>
    <path d="M153,116.8c-11.2-14-28.1-14.78-41.32-2.56C125.82,108.77,139.65,108,153,116.8Z" style="fill: #fff"/>
    <path d="M205.53,151.29c-15-5.72-12.47-17.28-11.45-28.92.43-4.91-2-10.07-3.13-15.11l-2.59.5c.35,2.69.86,5.37,1,8.07.29,5.36,1.13,10.84.42,16.1C188.24,143.35,192.17,149.16,205.53,151.29Z" style="fill: #fff"/>
    <path d="M92.15,125c-.26-5.81-.27-14-7.77-12.11-18.5,4.74-34.19-.59-49.65-9.6C47.82,109.73,59.1,122,76,115.65,85,112.3,90.14,115.32,92.15,125Z" style="fill: #fff"/>
    <path d="M140.73,160.9c12.2-.94,17.11-6.07,18.31-19.66Z" style="fill: #fff"/>
    <path d="M233.42,134.12l12.35-6c-4.46-.85-8.9-1.77-13.37-2.51a5.84,5.84,0,0,0-3.47.38c-2.13,1.11-4.06,2.57-6.08,3.89a67.56,67.56,0,0,0,6.38,2.9c1,.35,2.33-.07,3.51-.14Z" style="fill: #fff"/>
    <path d="M114.29,135.86a15,15,0,0,0,15.59,15,15.6,15.6,0,0,0,15-15.79,15.8,15.8,0,0,0-15.81-15.12A15.37,15.37,0,0,0,114.29,135.86ZM128.77,132V132c2.09,0,4.31-.45,6.23.12s3.52,2.16,5.26,3.29c-1.82,1.09-3.55,2.8-5.5,3.11a38.3,38.3,0,0,1-10.69.25c-2-.23-3.74-1.9-5.6-2.93a41.52,41.52,0,0,1,5.87-3.66C125.61,131.59,127.28,132,128.77,132Z"/>
    <path d="M233.31,126c-1.49,0-3.17-.44-4.43.1a41.61,41.61,0,0,0-5.88,3.66c1.86,1,3.65,2.7,5.6,2.93a38.29,38.29,0,0,0,10.69-.25c2-.31,3.68-2,5.51-3.11-1.75-1.13-3.36-2.72-5.27-3.29s-4.14-.12-6.22-.12Z" style="fill: #fff"/>
    <path d="M218.83,127.86a14.93,14.93,0,0,0,15.58,15,15.6,15.6,0,0,0,15-15.79,15.8,15.8,0,0,0-15.81-15.12A15.36,15.36,0,0,0,218.83,127.86ZM233.31,124V124c2.08,0,4.3-.45,6.22.12s3.52,2.16,5.27,3.29c-1.83,1.09-3.56,2.8-5.51,3.11a38.29,38.29,0,0,1-10.69.25c-1.95-.23-3.74-1.9-5.6-2.93a41.61,41.61,0,0,1,5.88-3.66C230.14,123.59,231.82,124,233.31,124Z"/>
  </g>
</svg>
