<svg id="Layer_1" data-name="Layer 1" xmlns="http://www.w3.org/2000/svg" width="330.17" height="482.98" viewBox="0 0 330.17 482.98">
  <title>logo_white_text</title>
  <g>
    <g>
      <path d="M83.92,128.83c-2.6,26.81-5.11,50.46-7,74.17-.31,4,2,8.32,3.6,12.3,6.53,16.45,17.36,24.94,36.16,22.93,8.22-.88,17,2.69,25.39,4.84,2.58.67,5.06,3,6.87,5.15,3.48,4.14,6.47,8.69,9.62,13.1,6.5,9.1,6.71,9.11,14.44.08,2.89,3.87,5.54,7.77,8.56,11.35,1.63,1.94,3.88,3.34,5.85,5,1.47-2.1,3.12-4.1,4.37-6.32,1-1.8,1.55-3.87,2.76-7.05,10.41,5.28,20.35,10.49,30.47,15.31,2.42,1.15,5.45,1,8.2,1.46.09-2.55.54-5.16.19-7.65-.9-6.54-2.15-13-3.23-19.4,5.21-.82,12.52.08,14.49-2.78,2.48-3.61.6-10.28.6-16.37,11.72-2.93,15.59-11.05,13-23.46-.68-3.22,1.09-7.06,2.09-10.5,3.41-11.78.25-18.91-10.64-23.84-5.53-2.51-11-4.81-8.63-13.15.59-2.11-2.24-5.2-1.16-7.26,3-12.68,5.77-25.41,9.05-38a8.5,8.5,0,0,1,4.77-5.15c17.65-5.62,30.36-16.63,35.56-34.72,1.23-4.29-1.92-9.88-3.05-14.87-3.41.87-7.24,1-10.15,2.72-12.34,7.31-23.89,16.22-39.26,16-5.79-.06-7.73-1.53-9.62-8.21-4.52-15.93,5.14-28,8.27-41.7,1.3-5.69,1-8.83-4-11.93-9.94-6.17-19.47-13-29.36-19.23-1.94-1.22-5.88-2.28-7-1.26-12.56,11.41-24.75,23.25-37,35l1,2.54c2,0,4.15.55,5.9-.1a137.48,137.48,0,0,0,13.95-6.17c4.1-2.07,7.41-2.8,11,1.36,3.21,3.7,6.08,6.09,4,12.24-4.87,14.58-15.9,22.18-27.48,29.82-13.85-17.9-13.85-17.9-19.89-18.25.66-18.91-8.12-34.48-18.2-49.71-3.32-5-6.24-6.32-11.7-3.9-16.14,7.14-32.53,13.68-48.56,21-3,1.38-5.95,5.1-6.92,8.35-2.75,9.23-4.6,18.75-6.47,28.22-.38,2,.76,4.2,1.19,6.31,1.75-.77,3.79-1.2,5.19-2.39A43,43,0,0,0,68,57.59C75.81,47,86.41,41.76,100.52,40.46c2.69,8.57,5.54,17.62,7.91,25.17-3.72,4.89-7.53,8.34-9.36,12.66-3,7-7.58,10.19-14.68,12.66-15.7,5.46-30.52,5.84-45.76-1.43C32,86.33,24.48,84.69,17.23,83c-3.4-.82-10.14-.73-10.25-.12-1.05,5.88-3.56,13.85-.82,17.64,9.94,13.73,20.38,28,39.46,29.78a14.17,14.17,0,0,1,3.45,1C60.11,135.24,71.15,139.26,83.92,128.83Zm70.79,110.36c-15.37-2.39-29.46-5.92-43.65-6.35-10.92-.34-18.06-3.44-22.15-13.58-2.19-5.42-6.83-10.88-6.52-16.09,1.44-24.06,4.16-48,6.56-72,.68-6.81-1.81-8.06-7.76-5.66-5.18,2.08-11.29,6-15.83,4.77-19.23-5.27-40-8-52-28.05-3.28-5.5-5.6-9.47-1.63-15a16.25,16.25,0,0,1,2.88.36c13.68,4.3,27.16,9.46,41.07,12.76,15,3.55,28.2-4.85,42-8.88.86-.25,1.64-1.86,1.9-3,3-12.62,12.51-16.32,23.6-18.43a100.11,100.11,0,0,0,18.12-5c7.7-3,12.29-1.65,16.11,6.35,4.74,9.9,12.21,10.9,20.44,3.83,2.25-1.92,3.45-5.25,5.84-6.78,3.19-2,7.25-4.42,10.63-4,7.65.91,15.22,3.11,22.6,5.48,2.18.69,4.92,3.56,5.17,5.7,1.08,9,5.32,13.87,14,12.2a168.4,168.4,0,0,0,28.75-8.5c6.27-2.42,11.83-6.72,17.73-10.18,7.34,14.41-15.42,39.29-37.08,39.45l11.84-4.07-.27-1.23-14,1.41,10.46-10.06c-9.4,5.72-9.37,5.59-20.42,2.61-4-1.06-8.14-1.33-12.22-2,22.44,15.13,22.44,15.13,21.74,22-9-12.41-19.83-15.62-29.37-8.64-8.08,5.9-10.51,17.65-3.58,24.53,4,4,10.85,7.08,16.28,6.87s10.8-5,16.94-8.18c-2.41,5.43-4.94,10.5-6.92,15.78-2.56,6.82-6.94,9.3-14.26,9.09-9.84-.29-19.71.85-29.57,1.27-6.14.26-10.28,5.37-7.21,9.1,7.41,9,12.4,21.82,26.27,23,.78,2.79,1.53,5.43,2.28,8.07,2.14-3,1-6.88,2.34-8.17,6.27-6.11,13.23-11.51,19.21-16.55,4.29,2.93,8.13,6.26,12.53,8.43,8.09,4,10,8.32,8,17.28-1.31,6-.32,12.57-2,18.39-1.23,4.23-4.57,10.06-8,11-9.7,2.52-20,2.86-30,4.05-2.79.34-5.57.64-8.35,1l.31,2.11h31.23c.52,4.05,1,8.08,1.65,12.87-2.9-.34-4.6-.53-6.3-.74-9.82-1.24-10.58-.39-8.78,9.36,1,5.56,1.86,11.17,3.05,18.42-11-5.54-20.6-10.18-30-15.25-4.9-2.64-7.75-1.72-9.46,3.59a54.08,54.08,0,0,1-2.89,6.06c-3.64-4.84-6.56-9-9.8-13-6.18-7.48-7.48,2.58-11.65,3.81L151.7,242.64c15.33,3.92,26.67-1.82,38.17-6.93-6.86.28-13.35,2.06-19.87,3.77-9.41,2.47-10.84,1.41-12.13-8.19-.48-3.52-1.42-7-2.16-10.48l-2.26.43C153.85,227,154.26,232.71,154.71,239.19ZM125,65.94c-2.08-6.62-3.95-12.54-5.81-18.47l-2.66.8c1,4.22,2.31,8.4,2.86,12.68.25,1.91-1,4-1.63,6-1.53-1.42-3.81-2.55-4.46-4.3-2.69-7.33-5.16-14.78-7.19-22.34-1.28-4.76-3.53-6.58-8.35-5.38-11.9,3-24,5.42-31.46,16.87-1,1.59-2.86,2.65-4.47,4.1-.71-11.49,4.94-17.61,14.8-21,4.77-1.63,9.21-4.27,13.73-6.6,2.79-1.44,5.45-3.15,8.16-4.73l-1.31-2.35-30,14.15-1.44-1.75c1.58-1.62,2.86-3.9,4.77-4.75Q93.79,18.54,117.37,8.74c1.67-.69,5.18-.26,6,.94C134,24.79,143.36,40.45,141,60.73Zm72.29-5.49-2.6-.92c1.7-5.57,3.93-11.06,4.9-16.76.5-3-.21-7.25-2.11-9.31-5.67-6.17-11.3-14.47-22-7.44l22.2-21.26,34.12,22.81c-3.27,9.15-6.35,17.61-9.33,26.1-5,14.14-5.69,14.45-19.57,7.41,3.15-9.65,6.44-19.32,9.41-29.08.62-2,1-5.47-.11-6.47-4.63-4.19-9.87-7.69-14.88-11.45l-1.9,2.58L210,28.31C205.14,39,204,51,197.25,60.45Zm4.59,117.2-3,.64c-3-3.33-6.07-6.56-8.9-10-3.13-3.81-1.74-6.25,2.81-6.53,12.19-.73,24.4-1.39,36.61-1.49,1.84,0,5.5,4.26,5.28,4.6a146.17,146.17,0,0,1-8.86,11.86l-2.66-1.94c1.14-2.36,2.29-4.72,3.91-8.06-9.75,2.58-9.67,7.2-4.45,12.95-5.41,8.2-12.14,6-19.09,4.83,3.14-14.73,3.14-14.73-4.22-15.86C200.09,171.49,201,174.57,201.84,177.65Zm22.45-68.76c8.15,0,14.63,6,14.78,13.72s-6.07,14-14.23,14.26c-8.64.24-15.29-6-15.17-14.14C209.78,114.88,216.06,108.94,224.29,108.89Z" style="fill: #fff"/>
      <path d="M78.49,137.24c-18.2,7.46-32.85-6.07-49.37-7.27-11.38,80.42,63.13,161.78,147.72,141.8-2.21-.37-5-1.77-6.56-.93-5.47,2.85-9.08,1.12-12.16-3.51a22.46,22.46,0,0,1-2.05-3c-8.54-18.85-25.38-23.05-43-22.4-15.65.57-25.45-4.24-32.7-18.63-5.19-10.32-8.12-19-5.81-31.17C77.91,174.31,77.36,155.7,78.49,137.24Z" style="fill: #fff"/>
      <path d="M264.07,212.09q28.31-50.21,14.23-106.37c-8,4-15.62,7.49-22.93,11.6-1.49.84-2.05,3.81-2.55,5.91-1.61,6.71-1.31,14.6-4.85,19.94-5.36,8.1-3.78,16-3,24.15.21,2.16,3.43,4.65,5.82,5.86,14.16,7.12,17.57,14.91,12.9,30.57-.75,2.52-1.36,5.09-2,7.64Z" style="fill: #fff"/>
      <path d="M97.7,45.68c-16.06-.93-23.3,11.37-32.46,20.49-7.09,7.06-6.95,7.2-16.36,1.11L39.76,83.86c17,13.8,33.85,6.13,50.28.53,3-1,3.76-7.47,6.67-10.23C106.46,64.93,102,55.57,97.7,45.68Z" style="fill: #fff"/>
      <path d="M137.18,8.6c4.32,13.88,8.42,27.12,12.59,40.33a10.1,10.1,0,0,0,2,3.83c4.12,4.36,8.22,8.77,12.71,12.72,1.78,1.57,6.31,3.19,6.63,2.72,5.73-8.45,17.05-12.55,18.75-24,.33-2.24-.26-5.62-1.75-6.87-1.84-1.54-5.37-2.48-7.62-1.8A88.31,88.31,0,0,0,165.69,42c-4.26,2.17-8.08,1.71-9.42-2.84-.78-2.62.2-6.79,1.95-9C164,23,170.47,16.42,177.59,8.6Z" style="fill: #fff"/>
      <path d="M234.06,79.82l28.59-7.75.66-3.47L238.21,38C233,52.29,226.56,64,234.06,79.82Z" style="fill: #fff"/>
      <path d="M119.92,149.4A19.11,19.11,0,0,0,139.44,131c.45-10.5-8.55-19.85-19.13-19.88a19.31,19.31,0,0,0-19,19A18.93,18.93,0,0,0,119.92,149.4Zm-14.77-18.68A15.37,15.37,0,0,1,120,114.79a15.81,15.81,0,0,1,15.81,15.13,15.6,15.6,0,0,1-15,15.79A15,15,0,0,1,105.15,130.72Z" style="fill: #fff"/>
      <path d="M174.73,205c25.11,4.72,49.48-.39,74-4.31l-.15-2.22Z" style="fill: #fff"/>
      <path d="M153.35,190.79c-6.28-6-11.68-13.72-19-17.65-11.4-6.08-26.62-5.38-31.35-22.51l-3,3.29c3.59,5,6.27,12.84,10.93,14.3,15.65,4.9,29.9,11.2,39.7,25.71Z" style="fill: #fff"/>
      <path d="M143.86,111.65c-11.2-14-28.11-14.77-41.32-2.56C116.68,103.62,130.51,102.86,143.86,111.65Z" style="fill: #fff"/>
      <path d="M196.39,146.15c-15-5.73-12.47-17.29-11.45-28.92.43-4.91-2-10.07-3.13-15.12l-2.59.51c.35,2.69.86,5.36,1,8.06.29,5.37,1.13,10.85.42,16.1C179.1,138.2,183,144,196.39,146.15Z" style="fill: #fff"/>
      <path d="M83,119.81c-.26-5.82-.27-14-7.77-12.11-18.5,4.73-34.19-.59-49.65-9.6,13.09,6.48,24.37,18.74,41.29,12.4C75.82,107.15,81,110.18,83,119.81Z" style="fill: #fff"/>
      <path d="M131.59,155.76c12.19-.94,17.1-6.08,18.3-19.66Z" style="fill: #fff"/>
      <path d="M224.28,129l12.34-6c-4.45-.85-8.89-1.77-13.36-2.51a5.88,5.88,0,0,0-3.48.38c-2.12,1.1-4.06,2.57-6.07,3.88a62.85,62.85,0,0,0,6.38,2.9c1,.36,2.33-.06,3.51-.13Z" style="fill: #fff"/>
      <path d="M119.63,126.89c-1.49,0-3.16-.44-4.43.1a39.77,39.77,0,0,0-5.87,3.66c1.86,1,3.64,2.7,5.59,2.93a38.75,38.75,0,0,0,10.7-.25c1.95-.32,3.67-2,5.5-3.11-1.74-1.14-3.35-2.72-5.26-3.29s-4.14-.13-6.23-.13Z" style="fill: #fff"/>
    </g>
    <g>
      <g>
        <path d="M258.25,345.27v48.45H246.09V300l34.5,52.8V307.25h13.77v85.58l-2,1.16Z" style="fill: #fff"/>
        <path d="M75.68,336.14C67.94,337.67,62,339,60.39,329.47c-.41-2.38-5.77-6.19-7.63-5.59-4,1.28-9.59,4.55-10.24,7.85-3.43,17.35-1.34,34.35,8.71,49.37,3.93,5.87,9.53,4.55,11.37-2.47,1.23-4.64.89-9.7,1.3-15.22l-11.54-1.27c-.75-3.24-1.47-6.36-2.4-10.41,6.75-.87,13.13-1.9,19.55-2.36,1.38-.09,3.67,1.58,4.24,3,5.14,12.46,6.25,25-.62,37.26-6.16,10.95-17.77,13.16-27.74,5.27-10.76-8.51-15.76-20.44-17.32-33.52a168.5,168.5,0,0,1-.51-29.72C28.48,316,35.18,308,46.81,306.94c14.53-1.27,24,5.82,27.81,21.06A69,69,0,0,1,75.68,336.14Z" style="fill: #fff"/>
        <path d="M137.76,392.3V310c.43-.29.9-.88,1.45-1,15.14-2,32.33-6.1,42.23,8.44,11.35,16.64,10.28,36.58,3.39,55.3-4.72,12.84-16,18-28.85,19.37C150.44,392.81,144.78,392.3,137.76,392.3Zm11.8-16c16.94.09,25.71-8.92,25.57-25.77-.2-23.06-5.22-28.75-25.57-28.37Z" style="fill: #fff"/>
        <path d="M28.63,411.12a22.86,22.86,0,0,1,3.77-.65q126.79-.77,253.58-1.3c3.94,0,7.88,2.53,11.82,3.88-3.9,1.14-7.79,3.25-11.7,3.28Q161.79,417.38,37.48,418C29,418.06,29,418,28.63,411.12Z" style="fill: #fff"/>
        <path d="M86.16,311.06h32.52v13l-21.06,1V344l16.89.87v13.41l-14.38,1.2V380H121v13.58H86.16Z" style="fill: #fff"/>
        <path d="M232.33,305.16v12l-18.75,2.6v24.89l17,2.29c-.35,4-.69,8.1-1.1,12.85l-15.87,1.26v22.15H232V398H200.28q0-12.19,0-24.42c0-18.89.22-37.79-.28-56.68-.2-7.42,2.42-10,9.61-10S224,305.84,232.33,305.16Z" style="fill: #fff"/>
      </g>
      <g>
        <path d="M166,458.38c-.26,4.78,4.27,8.24,9.46,7.08,1.35-.31,3.12-1.62,3.69.8s-1.07,3.48-3,3.87c-3.91.77-7.7.33-10.89-2.23a9.56,9.56,0,0,0-9.44-1.87,15.15,15.15,0,0,1-6.19.15c-7.13-1-10-8.95-6-16,3.29-5.63,10.47-8.1,17.87-6.39,1.63.37,3.46-.1,5.19-.26,2.8-.27,5.62-1,8.38-.81,4.12.31,6.47,3.7,6.51,8.45,0,3.9-2.11,6.63-6.23,7.12A81.09,81.09,0,0,1,166,458.38Zm-6.76-9.75c-6.25-.81-11.11,2-12,6.7-.58,3,.47,4.78,3.44,5.08a33.33,33.33,0,0,0,7.47-.14,3.06,3.06,0,0,0,1.73-2.36C159.83,454.87,159.47,451.84,159.23,448.63Zm13.59,5.4c.87-.64,3.15-1.47,3.36-2.67.46-2.56-2.12-3-4-3.2a7.14,7.14,0,0,0-4.05.89c-.86.51-1.21,1.88-1.79,2.86a14.46,14.46,0,0,0,2.36,1.32A36.14,36.14,0,0,0,172.82,454Z" style="fill: #fff"/>
        <path d="M324,465.82c-9.76,1.62-16.68-1.93-17.37-8.67-.9-8.75,5-13.41,18.38-14.06,0-2.54-.06-5.13,0-7.71a8.76,8.76,0,0,1,.6-3.49,2.91,2.91,0,0,1,2.24-1.42,3,3,0,0,1,2,1.71,8,8,0,0,1,.33,3.22c-.37,11.72-.78,23.43-1.16,35.15-.06,2-.29,3.8-3,3.68s-2.18-2.23-2.24-3.87C323.73,469,323.88,467.55,324,465.82Zm.74-4.85v-7.82c0-3.88-.85-4.78-4.73-4.47a14.39,14.39,0,0,0-4.71,1.19,5.53,5.53,0,0,0-3.37,6.41,5.37,5.37,0,0,0,5.19,4.64C319.41,461.15,321.79,461,324.7,461Z" style="fill: #fff"/>
        <path d="M217.85,449.9l9.45-9c1.22-1.18,2.75-2.62,4.08-.83.61.84.14,3.12-.62,4.19-1.43,2-3.43,3.66-5.54,5.82,2,2.43,4.15,4.88,6.2,7.39a15.23,15.23,0,0,1,2.63,3.73c.42,1.1.06,2.5,0,3.76-1.37-.18-3.27.16-4-.62-2.53-2.56-4.65-5.52-6.92-8.33l-1.8-2.21c-2.73,1.09-4,2.76-3.62,5.63a9.27,9.27,0,0,1-.07,4.23c-.38,1.11-1.65,1.91-2.53,2.84-.82-.88-1.66-1.76-2.45-2.67-.12-.13-.06-.42-.07-.64-.47-10.07-1-20.13-1.35-30.2a10,10,0,0,1,.7-4.16c.35-.82,1.7-2,2.24-1.8a3.57,3.57,0,0,1,2.18,2.32,46.23,46.23,0,0,1,.08,6.56c0,4.56,0,9.13,0,13.7Z" style="fill: #fff"/>
        <path d="M57.37,450.25c3.5-3.34,6.57-6.27,9.64-9.18,1.28-1.21,2.64-2.83,4.42-1.05s.19,3.22-1,4.52c-1.6,1.79-3.29,3.5-5.27,5.58,2,2.48,4.27,5.13,6.45,7.82a13.53,13.53,0,0,1,2.47,3.45c.39,1,0,2.35-.07,3.54-1.3-.08-3.08.35-3.8-.34a80.56,80.56,0,0,1-6.16-7.22c-1-1.18-1.89-2.39-2.85-3.61-3,1.17-4.2,3.09-3.63,6.16a6.14,6.14,0,0,1,0,3.24,16.67,16.67,0,0,1-2.44,3.32c-.84-1.05-2.31-2.05-2.42-3.17-.64-7.2-1.06-14.42-1.4-21.64-.17-3.72-.1-7.45,0-11.17,0-1.83.62-3.94,2.87-3.44,1,.22,2.06,2.39,2.14,3.73.31,4.91.17,9.84.29,14.75A42.9,42.9,0,0,0,57.37,450.25Z" style="fill: #fff"/>
        <path d="M85.49,458.32c.57,5.11,4.59,7.88,9.86,6.83,1.1-.21,3.2.15,3.43.77.74,2-.58,3.09-2.55,3.7-7.55,2.34-13.9-1.56-16.13-10-2.3-8.75,2.05-16,10.5-17.43,4.89-.85,8.91,1.46,10.28,5.91,1.65,5.36-.79,9.46-6.41,10.17A72.26,72.26,0,0,1,85.49,458.32Zm0-7,.8,1.84a52.26,52.26,0,0,0,7.92-.1c2-.31,2.82-2.37,1.07-3.55a9.45,9.45,0,0,0-6-1.25C87.92,448.42,86.77,450.22,85.52,451.3Z" style="fill: #fff"/>
        <path d="M284.71,458.4c.84,5.21,4.68,7.77,10,6.74,1.07-.21,3.11.23,3.36.88.68,1.8-.52,2.94-2.36,3.55-7.36,2.45-14-1.39-16.19-9.44-2.51-9.27,1.73-16.57,10.45-18,4.48-.73,8.54,1.36,9.94,5.1,2.24,6-.56,10.58-6.95,11.12C290.31,458.59,287.6,458.4,284.71,458.4Zm.09-7.1.58,1.53c2.71.11,5.47.53,8.14.2,2-.25,2.84-2.35,1.08-3.53a9.4,9.4,0,0,0-6-1.26C287.21,448.41,286.05,450.22,284.8,451.3Z" style="fill: #fff"/>
        <path d="M36.32,457.59c1.23-4.17,2.25-7.69,3.31-11.2.53-1.76,1.44-3.76,3.49-2.86,1,.44,1.94,3,1.61,4.19-2.07,7.69-4.55,15.27-6.82,22.91-.94,3.14-1.61,6.36-2.55,9.5-.52,1.76-1.49,3.36-3.75,2.7-2.09-.61-2.1-2.27-1.66-4,1.09-4.23,2.36-8.42,3.23-12.7a7.21,7.21,0,0,0-.67-4.71c-1.49-2.53-3.57-4.7-5.28-7.1a16.61,16.61,0,0,1-2.75-4.79c-.34-1.2.44-2.7.71-4.07,1.38.51,3.24.63,4,1.61a76.61,76.61,0,0,1,5.05,7.65C34.79,455.5,35.36,456.24,36.32,457.59Z" style="fill: #fff"/>
        <path d="M265.06,441.84c-2.69-.67-6.85,1.19-6.9-2.78s4.23-2.6,7.22-3.26a36,36,0,0,1,.1-6.16c.17-1,1.4-1.87,2.15-2.79,1,1,2.43,1.81,2.77,3,.55,1.82.33,3.87.43,5.7,2.58,1.32,7.25-1.1,7.2,3.42,0,4.36-4.38,1.55-7,3-.06.76-.23,1.9-.22,3,.05,5.46.18,10.93.21,16.4,0,2.11.61,4.88-2.61,5.05-3.65.18-2.85-2.92-2.93-5-.18-5.35-.16-10.71-.24-16.07C265.21,444.11,265.12,442.94,265.06,441.84Z" style="fill: #fff"/>
        <path d="M246.49,447.4c1.62.81,3.29,1.55,4.87,2.45,3.65,2.09,6,5.06,6,9.47.08,4.63-2.26,7.46-6.87,7.28a22.14,22.14,0,0,1-8.08-2.27c-.72-.33-.87-2.7-.6-4,.11-.51,2.12-1,3.18-.85,1.36.18,2.6,1.2,4,1.46a3,3,0,0,0,2.56-.8,2.83,2.83,0,0,0-.14-2.63,8.54,8.54,0,0,0-5.49-3.74c-4.07-1.67-5.95-4.72-4.78-7.74,1.53-4,6.76-6.67,10.39-5.41,2.15.74,3.52,2.2,2.84,4.44-.73,2.43-2.58,1-4.11.75a20.68,20.68,0,0,0-3.61,0Z" style="fill: #fff"/>
        <path d="M130.89,457.63c1-2.8,1.86-5.14,2.75-7.46.54-1.42.88-3.06,1.83-4.16s2.57-1.75,3.9-2.59c.24,1.47,1,3.14.62,4.39-1.84,5.34-3.93,10.61-6.2,15.79a5.21,5.21,0,0,1-3.2,2.78c-.75.13-2.14-1.6-2.77-2.75-2.54-4.7-4.92-9.49-7.3-14.27-.82-1.65-1.9-3.6.29-4.9,2.54-1.51,3.54.87,4.46,2.44C127.18,450.2,128.82,453.64,130.89,457.63Z" style="fill: #fff"/>
        <path d="M193.57,443.73c2.93-.18,5.64-.44,8.34-.48,2,0,3.7,1,3.24,3.11-.2.91-2.09,1.65-3.34,2.08-1,.35-2.18,0-3.26.14-3.93.55-5.24,2.14-5.12,6.12.08,2.84.28,5.67.29,8.51,0,2.19-1.09,3.59-3.4,3.49s-2.11-2-2.16-3.65c-.18-6.67-.36-13.34-.58-20-.08-2.2-.2-4.34,2.86-4.46s2.8,2.1,2.94,4.07C193.41,443,193.49,443.29,193.57,443.73Z" style="fill: #fff"/>
        <path d="M113.88,447.25v15.42c0,1.84-.14,3.78-2.53,3.83s-2.65-2-2.71-3.76c-.28-8-.4-16-.67-23.94-.1-2.84-.46-5.66-.69-8.49-.15-1.94.34-3.66,2.54-3.89,2.35-.24,3,1.7,3.06,3.46.13,5.79.05,11.58.05,17.37Z" style="fill: #fff"/>
        <path d="M0,454.56c0-6.76,9-13.33,15.17-10.94,1.14.44,1.71,2.36,2.54,3.6-1.18.35-2.43,1.12-3.55,1a7.94,7.94,0,0,0-8.61,5.4c-.87,2.8,1,5.79,4.8,7.1,1.72.59,3.62.65,5.4,1.11.76.2,1.95.75,2,1.22a3.15,3.15,0,0,1-1,2.48A8.15,8.15,0,0,1,13,466.67,12.27,12.27,0,0,1,0,454.56Z" style="fill: #fff"/>
      </g>
    </g>
  </g>
</svg>
