<svg width="138" height="68" viewBox="0 0 138 68" fill="none" xmlns="http://www.w3.org/2000/svg">
<path d="M56.9922 67.7491C50.2161 64.5429 43.475 61.3367 36.6988 58.1304C27.0085 53.5447 17.2831 48.9964 7.59286 44.4107C7.31198 44.2988 6.99599 44.0379 6.78533 44.1124C5.34584 44.5225 4.46809 44.2616 4.46809 42.3975C4.46809 42.2111 3.59035 41.7264 3.4148 41.8755C3.0637 42.1365 2.81794 42.6584 2.74772 43.1431C2.53706 44.187 2.64239 45.3427 2.25618 46.2748C2.08063 46.6849 1.09756 46.7222 0.465584 46.9086C0.290035 46.2748 -0.0610618 45.5664 0.00915762 44.9699C0.149597 44.0006 0.535803 43.0313 0.95712 42.0992C1.27311 41.3909 1.72953 40.7198 2.25618 40.1978C11.4549 31.5857 22.4794 26.0307 32.907 19.4691C39.964 14.9953 47.1264 10.6706 54.2537 6.34589C55.3772 5.67482 55.9038 4.92918 55.6932 3.54975C55.623 3.13965 55.6932 2.69227 55.6932 2.24488C55.6581 0.9773 55.623 -0.103875 57.3784 0.00797103C59.5201 0.157099 59.801 0.268944 59.801 2.35673C59.801 3.0278 59.801 3.69888 59.801 4.63092C82.8681 5.93579 105.83 7.24066 129.002 8.54552C128.897 6.04764 130.336 6.19676 131.881 6.27133C133.567 6.34589 135.217 6.30861 137.042 6.30861C137.042 12.3856 137.042 18.1642 137.007 23.9429C137.007 24.3158 136.481 24.9868 136.165 24.9868C133.918 25.0614 131.671 25.0241 129.178 25.0241C129.178 23.3837 129.178 21.967 129.178 19.8792C105.97 35.985 83.1841 51.7552 60.3979 67.5627C61.4161 65.2513 61.3107 63.9091 59.9766 62.9771C58.7477 62.1196 57.554 62.2314 56.5007 63.3499C55.4474 64.4683 55.5879 65.7732 56.9922 67.7491ZM59.5201 60.5537C60.6437 59.8827 61.3458 59.4726 61.9778 59.0252C77.8123 48.1389 93.6468 37.2153 109.481 26.2917C113.659 23.421 117.837 20.5876 121.945 17.605C122.542 17.1949 122.963 16.151 122.999 15.3681C123.034 14.9953 121.98 14.3242 121.348 14.2124C118.856 13.8768 116.363 13.6531 113.835 13.4667C106.181 12.9075 98.5622 12.3856 90.9082 11.8263C81.2882 11.118 71.6681 10.4096 62.048 9.73854C59.485 9.55213 59.485 9.62669 59.485 12.311C59.485 27.5966 59.485 42.8821 59.485 58.1677C59.5201 58.7642 59.5201 59.398 59.5201 60.5537ZM55.8336 9.85039C55.2016 10.1486 54.8857 10.2605 54.6048 10.4469C48.1095 14.958 41.6142 19.5064 35.154 24.0548C28.4831 28.7523 21.7421 33.3753 15.1414 38.1846C13.5966 39.3031 12.3678 40.8689 10.7527 42.4347C25.9201 49.6301 40.8067 56.6764 55.8687 63.8345C55.8336 45.641 55.8336 27.9321 55.8336 9.85039ZM37.1201 20.1029C37.0499 19.9911 36.9797 19.9165 36.9095 19.8046C36.7339 19.8419 36.5584 19.8792 36.4179 19.9538C29.5364 24.1293 22.6198 28.2304 15.8085 32.555C12.9998 34.3073 10.4367 36.4696 7.83863 38.5947C7.45242 38.9302 7.62797 40.0487 7.52264 40.7943C8.18972 40.7198 9.10258 40.9062 9.48878 40.5334C14.4041 35.3885 20.5132 31.9958 26.1308 27.8948C29.7471 25.2105 33.4687 22.6754 37.1201 20.1029Z" fill="black"/>
</svg>
