<svg width="535" height="536" viewBox="0 0 535 536" fill="none" xmlns="http://www.w3.org/2000/svg">
<path d="M247.558 0.434409C193.616 5.56555 147.196 23.1635 105.902 54.1747C92.6256 64.2291 70.0463 86.2307 59.0678 99.8463C35.6478 128.97 17.1465 165.944 8.15517 201.982C-12.437 284.004 6.48466 370.741 59.0678 436.106C63.7736 441.866 73.6002 452.55 80.9155 459.781C161.936 539.188 283.305 558.564 385.026 508.385C415.238 493.511 435.726 478.528 459.25 454.229C479.531 433.278 492.911 414.635 505.877 389.28C528.249 345.178 538.387 293.533 533.997 245.455C529.188 194.023 511.205 146.776 480.786 106.132C470.96 93.0357 448.795 70.2027 435.835 59.7271C387.221 20.4448 326.591 -0.719804 265.328 0.0186872C257.592 0.0186872 249.54 0.330473 247.558 0.434409ZM287.492 22.6438C291.881 23.0651 295.856 23.7981 296.271 24.2138C297.106 25.0508 268.674 188.257 267.522 189.619C267.102 190.041 260.207 153.061 252.155 107.39C243.999 61.7182 237.518 24.2138 237.726 24.006C239.298 22.3266 273.588 21.3857 287.492 22.6438ZM235.013 24.5256C235.013 24.8375 241.913 63.6 250.277 110.634C258.64 157.667 265.541 197.579 265.541 199.362C265.644 201.036 264.602 208.268 263.346 215.286C261.566 224.504 260.524 228.169 259.475 228.169C258.536 228.169 258.012 229.323 258.012 231.101C258.012 234.87 255.294 238.644 252.679 238.644C251.423 238.644 249.332 237.703 247.869 236.549C246.406 235.395 244.523 234.454 243.791 234.454C243.06 234.454 237.415 230.997 231.246 226.703L220.164 218.847L174.688 153.587C149.702 117.658 126.702 84.7646 123.568 80.2571L117.924 72.2978L130.676 63.7094C158.485 45.1651 192.043 31.5495 225.181 25.5814C235.428 23.6887 235.013 23.7926 235.013 24.5256ZM318.118 27.2499C341.429 31.8613 372.689 44.3227 394.433 57.4186C406.667 64.8582 416.073 71.9805 415.549 73.4466C415.238 74.1796 392.445 107.176 364.849 146.776L314.564 218.951L303.275 226.703C297.106 230.997 291.565 234.454 290.937 234.454C290.413 234.454 288.742 235.395 287.279 236.549C284.249 238.852 280.695 239.273 279.227 237.282C278.599 236.653 277.764 234.246 277.447 232.047C276.923 229.115 276.295 228.169 275.149 228.59C274.314 228.907 273.686 229.011 273.686 228.907C273.686 228.803 272.534 222.201 271.071 214.241L268.56 199.887L283.092 117.34C291.144 71.9805 298.252 32.3865 298.88 29.345L300.032 23.7926L303.793 24.5256C305.89 24.8429 312.37 26.1011 318.118 27.2499ZM431.446 84.9725C440.541 93.0412 457.579 111.268 459.878 115.349C460.402 116.29 440.328 130.956 392.658 164.27C355.235 190.456 323.872 212.354 322.928 212.874C320.733 214.236 319.057 216.643 371.853 140.906C403.528 95.5466 418.688 74.4914 419.627 75.0166C420.364 75.4378 425.588 79.9453 431.446 84.9725ZM147.507 119.435C164.441 143.844 186.082 174.954 195.701 188.782C207.826 206.173 212.22 213.191 210.13 211.829C208.459 210.675 177.2 188.886 140.612 163.329C95.972 132.11 74.3317 116.399 74.8558 115.459C79.0376 108.123 112.284 75.2354 115.418 75.2354C116.149 75.2299 130.469 95.1309 147.507 119.435ZM477.653 140.802C489.363 160.184 499.604 185.008 505.255 207.113C507.766 217.064 511.107 234.662 510.588 235.187C510.381 235.395 470.965 242.523 422.984 251.111L335.582 266.718L318.02 263.572C308.297 261.795 299.726 259.907 299.098 259.382C297.008 257.708 297.532 254.771 300.354 251.423C303.488 247.654 303.597 247.025 300.878 247.025C299.726 247.025 298.787 246.817 298.787 246.5C298.787 246.182 302.762 240.214 307.675 233.196L316.453 220.521L389.427 169.505L462.389 118.495L467.406 125.305C470.228 129.178 474.83 136.093 477.653 140.802ZM146.361 170.763L218.182 220.942L227.07 233.721C234.385 244.508 235.537 246.604 233.866 246.817C231.251 247.238 231.355 248.283 234.494 251.215C237.316 253.835 237.944 257.604 235.853 259.388C235.122 259.913 226.551 261.795 216.828 263.578L199.266 266.614L111.858 251.111C63.8719 242.523 24.3581 235.4 24.1452 235.083C23.9378 234.875 24.9805 228.694 26.4435 221.254C30.9365 198.312 37.6295 178.515 48.0838 157.563C57.5993 138.499 70.9798 118.489 73.2781 119.851C74.0151 120.272 106.841 143.215 146.361 170.763ZM270.034 222.201C272.124 234.246 271.813 235.4 267.315 235.504C263.237 235.504 262.822 232.884 264.913 220.838C265.956 214.449 267.107 209.63 267.528 210.051C267.839 210.571 268.985 216.019 270.034 222.201ZM305.469 232.047C302.751 236.029 299.093 241.161 297.422 243.568C294.807 247.233 293.972 247.862 292.405 246.921C290.315 245.871 289.79 241.369 291.254 238.858C291.985 237.703 309.132 225.133 310.071 225.029C310.279 225.029 308.188 228.169 305.469 232.047ZM242.432 237.911C245.047 239.902 245.675 242.938 243.895 245.559C242.956 246.921 241.804 248.075 241.384 248.075C240.548 248.075 229.362 232.676 226.12 227.228C225.497 226.074 233.757 231.522 242.432 237.911ZM119.703 254.984C158.278 261.795 189.641 267.664 189.325 267.976C189.117 268.288 151.689 275.098 106.317 283.167L23.9378 297.937L23.1025 293.118C22.0543 287.04 22.0543 246.713 23.1025 241.686L23.834 237.917L36.6905 240.22C43.7001 241.472 81.0193 248.075 119.703 254.984ZM512.461 265.881C512.461 278.244 512.144 290.497 511.729 293.118L510.894 297.937L428.514 283.167C383.143 275.098 345.72 268.288 345.513 267.976C345.201 267.664 382.204 260.854 427.679 252.681L510.479 237.911L511.418 240.635C511.833 242.102 512.357 253.518 512.461 265.881ZM269.302 245.559C267.315 247.55 265.328 246.713 265.328 243.885C265.328 241.369 267.522 240.635 269.509 242.419C270.765 243.672 270.765 244.093 269.302 245.559ZM257.799 247.233C257.592 248.595 256.751 249.64 255.916 249.64C255.081 249.64 254.246 248.589 254.033 247.233C253.716 245.449 254.24 244.93 255.916 244.93C257.592 244.93 258.116 245.455 257.799 247.233ZM281.634 246.084C282.683 247.862 279.232 250.903 277.764 249.437C277.032 248.704 276.825 247.446 277.136 246.609C277.873 244.722 280.592 244.405 281.634 246.084ZM275.886 254.672C286.968 262.112 284.353 278.977 271.6 282.642C263.548 284.945 253.721 278.66 252.258 270.383C251.319 264.519 254.453 257.287 259.263 254.355C264.072 251.423 271.289 251.527 275.886 254.672ZM249.436 255.717C249.856 257.916 246.614 259.382 245.462 257.495C244.206 255.504 245.462 253.097 247.449 253.513C248.393 253.731 249.229 254.672 249.436 255.717ZM290.205 255.717C290.626 257.812 287.59 259.278 286.024 257.708C284.457 256.138 285.92 253.097 288.011 253.518C289.059 253.731 289.998 254.672 290.205 255.717ZM231.246 266.302C234.385 267.56 237.098 271.543 235.848 272.795C235.324 273.211 212.428 269.338 209.922 268.288C208.252 267.659 218.706 265.148 224.351 264.935C226.229 264.94 229.368 265.46 231.246 266.302ZM246.302 267.243C246.723 269.546 243.48 270.908 242.328 268.917C241.28 267.347 243.06 264.519 244.839 265.148C245.467 265.356 246.089 266.302 246.302 267.243ZM293.344 267.243C293.765 269.338 290.729 270.804 289.163 269.234C287.596 267.664 289.059 264.623 291.15 265.044C292.193 265.252 293.137 266.193 293.344 267.243ZM319.691 266.302C327.426 267.872 326.902 268.293 313.942 270.596C308.821 271.433 303.488 272.484 302.232 272.691C297.526 273.742 300.141 267.451 305.054 265.569C307.669 264.623 312.473 264.831 319.691 266.302ZM213.476 271.641C221.528 273.107 229.368 274.573 230.727 274.891L233.238 275.416L230.94 277.823C228.221 280.651 228.953 281.592 233.97 281.592C241.285 281.592 240.87 283.058 229.057 299.923L217.975 315.633L162.569 354.39C64.8163 422.698 73.0761 417.146 71.2964 415.576C67.7425 412.644 54.6731 391.375 47.4615 376.819C38.9943 359.954 31.5697 338.581 27.7046 320.354C25.1934 308.938 23.7303 300.453 24.1507 300.453C24.7785 300.344 198.005 269.234 198.316 269.13C198.42 269.021 205.32 270.175 213.476 271.641ZM420.047 284.212C464.059 291.963 502.427 298.878 505.457 299.507L510.894 300.557L510.266 304.43C507.444 324.752 498.556 353.663 489.254 373.044C479.323 393.788 464.163 417.463 461.444 416.413C460.713 416.101 427.783 393.262 388.264 365.605L316.551 315.431L305.993 300.349C300.245 292.073 295.746 284.639 295.856 283.692C296.063 282.642 297.63 282.018 300.349 281.805C306.097 281.28 307.249 279.918 304.006 277.407C302.543 276.253 301.604 275.312 301.915 275.312C302.227 275.208 309.547 273.846 318.118 272.166C326.793 270.596 335.266 269.338 336.936 269.655C338.716 269.863 376.035 276.357 420.047 284.212ZM249.436 279.289C249.753 280.968 249.229 281.592 247.662 281.592C244.943 281.592 243.9 279.808 245.571 277.823C247.241 275.831 249.021 276.461 249.436 279.289ZM290.205 279.393C289.998 280.333 289.053 281.176 288.011 281.384C285.816 281.805 284.353 278.556 286.231 277.401C288.224 276.149 290.626 277.401 290.205 279.393ZM258.007 287.877C258.007 289.239 257.275 289.972 255.916 289.972C254.557 289.972 253.825 289.239 253.825 287.877C253.825 286.515 254.557 285.782 255.916 285.782C257.275 285.782 258.007 286.515 258.007 287.877ZM281.531 287.877C281.531 288.714 280.482 289.556 279.232 289.764C277.349 290.082 276.83 289.556 276.83 287.877C276.83 286.203 277.354 285.678 279.232 285.99C280.488 286.203 281.531 287.04 281.531 287.877ZM269.509 289.452C271.076 291.34 270.034 293.118 267.315 293.118C266.059 293.118 265.328 292.385 265.328 291.23C265.328 287.773 267.419 286.832 269.509 289.452ZM245.882 295.842C244.211 297.204 238.67 301.186 233.544 304.638L224.345 311.131L230.411 302.226C233.861 297.302 236.891 293.845 237.207 294.37C237.731 295.207 239.298 294.999 241.913 293.949C247.558 291.652 249.856 292.8 245.882 295.842ZM297.63 294.999C298.154 294.791 301.08 298.145 304.006 302.439C307.036 306.629 308.816 309.769 308.084 309.353C305.469 307.783 289.894 296.991 288.011 295.317C286.127 293.747 286.127 293.643 288.011 293.014C289.059 292.702 291.357 293.014 293.241 293.851C295.124 294.584 297.106 295.109 297.63 294.999ZM251.527 304.638C251.843 304.638 253.514 303.38 255.081 301.81C256.855 300.136 258.427 299.403 258.946 300.032C259.47 300.557 261.244 308.938 262.92 318.68L266.059 336.382L250.484 423.852C242.017 472.04 234.909 511.53 234.696 511.634C234.172 512.159 216.402 508.806 206.679 506.29C184.1 500.53 159.949 490.262 139.875 478.112C129 471.515 118.966 464.283 118.966 463.031C118.966 462.609 141.758 429.613 169.562 389.701L220.06 317.105L235.116 306.525L250.167 296.05L250.479 300.344C250.692 302.756 251.112 304.638 251.527 304.638ZM302.751 309.353L314.564 317.63L365.269 390.33C407.502 450.98 415.762 463.343 414.61 464.601C411.58 468.266 390.147 481.362 375.615 488.484C352.615 499.693 331.188 506.711 308.92 510.272C299.928 511.738 299.824 511.738 299.3 509.539C298.989 508.385 291.98 468.895 283.622 421.861L268.57 336.377L271.813 317.942C275.367 298.249 275.891 297.095 280.177 302.018C283.731 306.208 285.51 305.475 284.67 300.234L283.938 295.836L287.388 298.457C289.37 299.928 296.271 304.851 302.751 309.353ZM265.328 304.118C266.583 307.991 269.509 309.146 269.509 305.896C269.509 304.851 270.241 303.068 271.18 301.914C272.747 299.923 272.747 299.923 272.223 302.018C271.912 303.172 270.967 308.615 270.028 314.063C267.517 329.358 267.309 329.462 264.694 315.108C263.335 307.882 262.292 301.389 262.292 300.65C262.189 298.145 264.072 300.344 265.328 304.118ZM212.324 323.811C211.904 324.648 190.056 355.971 163.923 393.47C133.499 437.151 115.936 461.351 115.205 460.93C108.725 457.156 78.508 426.883 74.8504 420.494C74.3263 419.553 95.9666 403.837 143.222 370.84C181.272 344.232 212.635 322.444 212.848 322.444C212.952 322.449 212.745 323.078 212.324 323.811ZM426.112 395.565C444.827 408.557 459.774 419.657 459.566 420.39C458.627 424.58 426.637 456.948 419.632 460.93C418.797 461.455 402.594 439.038 370.811 393.47C344.677 355.971 322.928 324.648 322.513 323.915C322.093 323.182 337.564 333.658 357.01 347.17C376.455 360.785 407.502 382.579 426.112 395.565ZM282.579 429.509C290.522 474.343 296.691 511.323 296.271 511.738C294.6 513.412 266.998 514.462 252.679 513.412C244.632 512.783 237.939 512.154 237.731 511.946C237.524 511.738 244.004 474.234 252.16 428.562C260.212 382.995 267.211 346.229 267.528 346.852C267.943 347.591 274.63 384.778 282.579 429.509Z" fill="black"/>
</svg>
